<svg width="22" height="26" viewBox="0 0 22 26" fill="none" xmlns="http://www.w3.org/2000/svg">
<path d="M7.70707 14.9596C7.31654 14.569 6.68338 14.569 6.29285 14.9596C5.90233 15.3501 5.90233 15.9832 6.29285 16.3738L7.70707 14.9596ZM9.66663 18.3333L8.95952 19.0404C9.35004 19.431 9.98321 19.431 10.3737 19.0404L9.66663 18.3333ZM15.7071 13.7071C16.0976 13.3166 16.0976 12.6834 15.7071 12.2929C15.3165 11.9024 14.6834 11.9024 14.2929 12.2929L15.7071 13.7071ZM19.3333 6.33333V22.3333H21.3333V6.33333H19.3333ZM17.6666 24H4.33329V26H17.6666V24ZM2.66663 22.3333V6.33333H0.666626V22.3333H2.66663ZM4.33329 4.66667H6.99996V2.66667H4.33329V4.66667ZM15 4.66667H17.6666V2.66667H15V4.66667ZM4.33329 24C3.41282 24 2.66663 23.2538 2.66663 22.3333H0.666626C0.666626 24.3584 2.30825 26 4.33329 26V24ZM19.3333 22.3333C19.3333 23.2538 18.5871 24 17.6666 24V26C19.6917 26 21.3333 24.3584 21.3333 22.3333H19.3333ZM21.3333 6.33333C21.3333 4.30829 19.6917 2.66667 17.6666 2.66667V4.66667C18.5871 4.66667 19.3333 5.41286 19.3333 6.33333H21.3333ZM2.66663 6.33333C2.66663 5.41286 3.41282 4.66667 4.33329 4.66667V2.66667C2.30825 2.66667 0.666626 4.30829 0.666626 6.33333H2.66663ZM6.29285 16.3738L8.95952 19.0404L10.3737 17.6262L7.70707 14.9596L6.29285 16.3738ZM10.3737 19.0404L15.7071 13.7071L14.2929 12.2929L8.95952 17.6262L10.3737 19.0404ZM9.66663 2H12.3333V0H9.66663V2ZM12.3333 5.33333H9.66663V7.33333H12.3333V5.33333ZM9.66663 5.33333C8.74615 5.33333 7.99996 4.58714 7.99996 3.66667H5.99996C5.99996 5.69171 7.64158 7.33333 9.66663 7.33333V5.33333ZM14 3.66667C14 4.58714 13.2538 5.33333 12.3333 5.33333V7.33333C14.3583 7.33333 16 5.69171 16 3.66667H14ZM12.3333 2C13.2538 2 14 2.74619 14 3.66667H16C16 1.64162 14.3583 0 12.3333 0V2ZM9.66663 0C7.64158 0 5.99996 1.64162 5.99996 3.66667H7.99996C7.99996 2.74619 8.74615 2 9.66663 2V0Z" fill="#827D89"/>
</svg>
