<svg width="27" height="26" viewBox="0 0 27 26" fill="none" xmlns="http://www.w3.org/2000/svg">
<path d="M11.2662 2.75641C11.8347 0.414529 15.1653 0.41453 15.7338 2.75641C16.1011 4.26924 17.8343 4.98717 19.1638 4.17713C21.2217 2.92319 23.5768 5.27827 22.3229 7.33625C21.5128 8.66567 22.2308 10.3989 23.7436 10.7662C26.0855 11.3347 26.0855 14.6653 23.7436 15.2338C22.2308 15.6011 21.5128 17.3343 22.3229 18.6638C23.5768 20.7217 21.2217 23.0768 19.1638 21.8229C17.8343 21.0128 16.1011 21.7308 15.7338 23.2436C15.1653 25.5855 11.8347 25.5855 11.2662 23.2436C10.8989 21.7308 9.16568 21.0128 7.83625 21.8229C5.77827 23.0768 3.42319 20.7217 4.67713 18.6638C5.48717 17.3343 4.76924 15.6011 3.25641 15.2338C0.91453 14.6653 0.914529 11.3347 3.25641 10.7662C4.76924 10.3989 5.48717 8.66567 4.67713 7.33625C3.42319 5.27827 5.77827 2.92319 7.83625 4.17713C9.16567 4.98717 10.8989 4.26924 11.2662 2.75641Z" stroke="#827D89" stroke-width="2" stroke-linecap="round" stroke-linejoin="round"/>
<path d="M17.5 13C17.5 15.2091 15.7091 17 13.5 17C11.2909 17 9.5 15.2091 9.5 13C9.5 10.7909 11.2909 9 13.5 9C15.7091 9 17.5 10.7909 17.5 13Z" stroke="#827D89" stroke-width="2" stroke-linecap="round" stroke-linejoin="round"/>
</svg>
