<svg width="360" height="360" viewBox="0 0 360 360" fill="none" xmlns="http://www.w3.org/2000/svg">
<circle opacity="0.25" cx="180" cy="100" r="91.5" fill="url(#paint0_linear_4705_6255)" stroke="url(#paint1_linear_4705_6255)"/>
<circle opacity="0.5" cx="180" cy="100" r="59.5" fill="url(#paint2_linear_4705_6255)" stroke="url(#paint3_linear_4705_6255)"/>
<circle opacity="0.75" cx="180" cy="100" r="31.5" fill="url(#paint4_linear_4705_6255)" stroke="url(#paint5_linear_4705_6255)"/>
<path d="M34 100.5H326C330.142 100.5 333.5 103.858 333.5 108V359.5H26.5V108C26.5 103.858 29.8579 100.5 34 100.5Z" fill="url(#paint6_linear_4705_6255)" stroke="url(#paint7_linear_4705_6255)"/>
<path d="M34 100.5H326C330.142 100.5 333.5 103.858 333.5 108V131.5H26.5V108C26.5 103.858 29.8579 100.5 34 100.5Z" fill="url(#paint8_linear_4705_6255)" stroke="url(#paint9_linear_4705_6255)"/>
<g opacity="0.5">
<rect x="26" y="132" width="44" height="44" fill="white" fill-opacity="0.01"/>
<rect x="26" y="132" width="44" height="44" stroke="url(#paint10_linear_4705_6255)"/>
<path d="M43.9939 159.139C43.3111 159.139 42.7013 159.022 42.1643 158.786C41.6307 158.551 41.2081 158.224 40.8966 157.807C40.5883 157.386 40.4226 156.899 40.3994 156.345H41.9605C41.9804 156.647 42.0815 156.909 42.2638 157.131C42.4494 157.349 42.6913 157.518 42.9896 157.638C43.2879 157.757 43.6193 157.817 43.9839 157.817C44.385 157.817 44.7396 157.747 45.0479 157.608C45.3594 157.469 45.603 157.275 45.7787 157.026C45.9543 156.774 46.0422 156.484 46.0422 156.156C46.0422 155.815 45.9543 155.515 45.7787 155.256C45.6063 154.995 45.3528 154.789 45.018 154.64C44.6866 154.491 44.2855 154.416 43.8149 154.416H42.9548V153.163H43.8149C44.1927 153.163 44.5242 153.095 44.8092 152.96C45.0976 152.824 45.3229 152.635 45.4854 152.393C45.6478 152.147 45.729 151.861 45.729 151.533C45.729 151.218 45.6577 150.944 45.5152 150.712C45.376 150.477 45.1771 150.293 44.9186 150.161C44.6634 150.028 44.3618 149.962 44.0138 149.962C43.6823 149.962 43.3724 150.023 43.0841 150.146C42.799 150.265 42.567 150.437 42.3881 150.663C42.2091 150.885 42.113 151.152 42.0997 151.463H40.6132C40.6298 150.913 40.7922 150.429 41.1004 150.011C41.412 149.594 41.8229 149.267 42.3334 149.032C42.8438 148.797 43.4105 148.679 44.0336 148.679C44.6866 148.679 45.25 148.807 45.724 149.062C46.2013 149.314 46.5692 149.65 46.8277 150.071C47.0895 150.492 47.2188 150.953 47.2155 151.453C47.2188 152.023 47.0597 152.507 46.7382 152.905C46.42 153.303 45.9958 153.569 45.4655 153.705V153.785C46.1416 153.888 46.6653 154.156 47.0365 154.59C47.411 155.024 47.5966 155.563 47.5933 156.206C47.5966 156.766 47.4408 157.268 47.126 157.712C46.8144 158.156 46.3885 158.506 45.8483 158.761C45.308 159.013 44.6899 159.139 43.9939 159.139ZM53.0173 159.169C52.2318 159.166 51.5606 158.959 51.0038 158.548C50.447 158.137 50.0211 157.538 49.7261 156.753C49.4311 155.967 49.2836 155.021 49.2836 153.914C49.2836 152.81 49.4311 151.867 49.7261 151.085C50.0244 150.303 50.452 149.706 51.0088 149.295C51.5689 148.884 52.2384 148.679 53.0173 148.679C53.7962 148.679 54.464 148.886 55.0209 149.3C55.5777 149.711 56.0036 150.308 56.2986 151.09C56.5969 151.869 56.746 152.81 56.746 153.914C56.746 155.024 56.5985 155.972 56.3035 156.758C56.0086 157.54 55.5827 158.138 55.0258 158.553C54.469 158.964 53.7995 159.169 53.0173 159.169ZM53.0173 157.842C53.7067 157.842 54.2453 157.505 54.6331 156.832C55.0242 156.16 55.2197 155.187 55.2197 153.914C55.2197 153.069 55.1302 152.355 54.9513 151.771C54.7756 151.185 54.522 150.741 54.1906 150.439C53.8625 150.134 53.4714 149.982 53.0173 149.982C52.3312 149.982 51.7926 150.32 51.4015 150.996C51.0104 151.672 50.8132 152.645 50.8099 153.914C50.8099 154.763 50.8978 155.48 51.0734 156.067C51.2524 156.65 51.5059 157.093 51.8341 157.394C52.1622 157.692 52.5566 157.842 53.0173 157.842Z" fill="url(#paint11_linear_4705_6255)"/>
</g>
<g opacity="0.5">
<rect x="26" y="176" width="44" height="44" fill="white" fill-opacity="0.01"/>
<rect x="26" y="176" width="44" height="44" stroke="url(#paint12_linear_4705_6255)"/>
<path d="M48.5839 203.139C48.1298 203.133 47.6824 203.05 47.2416 202.891C46.8041 202.732 46.4063 202.466 46.0484 202.095C45.6904 201.724 45.4037 201.225 45.1883 200.599C44.9762 199.972 44.8701 199.19 44.8701 198.252C44.8701 197.364 44.9579 196.575 45.1336 195.886C45.3126 195.196 45.5695 194.615 45.9042 194.141C46.239 193.663 46.6433 193.3 47.1173 193.052C47.5912 192.803 48.1232 192.679 48.7132 192.679C49.3197 192.679 49.8583 192.798 50.3289 193.037C50.7996 193.276 51.1807 193.605 51.4724 194.026C51.7674 194.447 51.9546 194.926 52.0342 195.463H50.5178C50.4151 195.039 50.2113 194.692 49.9063 194.424C49.6014 194.156 49.2037 194.021 48.7132 194.021C47.9674 194.021 47.3857 194.346 46.9681 194.996C46.5538 195.645 46.345 196.549 46.3417 197.705H46.4163C46.5919 197.417 46.8074 197.172 47.0626 196.969C47.3211 196.764 47.6095 196.607 47.9276 196.497C48.2491 196.384 48.5872 196.328 48.9419 196.328C49.5318 196.328 50.0654 196.472 50.5427 196.761C51.0233 197.046 51.4061 197.44 51.6911 197.944C51.9762 198.448 52.1187 199.024 52.1187 199.674C52.1187 200.324 51.9712 200.912 51.6762 201.439C51.3846 201.966 50.9736 202.384 50.4433 202.692C49.913 202.997 49.2932 203.146 48.5839 203.139ZM48.5789 201.847C48.97 201.847 49.3197 201.75 49.6279 201.558C49.9362 201.366 50.1798 201.107 50.3588 200.783C50.5377 200.458 50.6272 200.095 50.6272 199.694C50.6272 199.303 50.5394 198.946 50.3637 198.625C50.1914 198.304 49.9527 198.048 49.6478 197.859C49.3462 197.67 49.0015 197.576 48.6137 197.576C48.3187 197.576 48.0453 197.632 47.7934 197.745C47.5448 197.858 47.3261 198.013 47.1372 198.212C46.9482 198.411 46.7991 198.64 46.6897 198.898C46.5837 199.154 46.5306 199.424 46.5306 199.709C46.5306 200.09 46.6185 200.443 46.7941 200.768C46.9731 201.093 47.2167 201.354 47.5249 201.553C47.8365 201.749 48.1878 201.847 48.5789 201.847Z" fill="url(#paint13_linear_4705_6255)"/>
</g>
<g opacity="0.5">
<rect x="26" y="220" width="44" height="44" fill="white" fill-opacity="0.01"/>
<rect x="26" y="220" width="44" height="44" stroke="url(#paint14_linear_4705_6255)"/>
<path d="M45.022 236.818V247H43.4808V238.359H43.4212L40.9851 239.95V238.479L43.5256 236.818H45.022ZM51.321 247.139C50.6383 247.139 50.0284 247.022 49.4915 246.786C48.9579 246.551 48.5353 246.224 48.2237 245.807C47.9155 245.386 47.7498 244.899 47.7266 244.345H49.2876C49.3075 244.647 49.4086 244.909 49.5909 245.131C49.7765 245.349 50.0185 245.518 50.3168 245.638C50.6151 245.757 50.9465 245.817 51.3111 245.817C51.7121 245.817 52.0668 245.747 52.375 245.608C52.6866 245.469 52.9302 245.275 53.1058 245.026C53.2815 244.774 53.3693 244.484 53.3693 244.156C53.3693 243.815 53.2815 243.515 53.1058 243.256C52.9335 242.995 52.6799 242.789 52.3452 242.64C52.0137 242.491 51.6127 242.416 51.142 242.416H50.282V241.163H51.142C51.5199 241.163 51.8513 241.095 52.1364 240.96C52.4247 240.824 52.6501 240.635 52.8125 240.393C52.9749 240.147 53.0561 239.861 53.0561 239.533C53.0561 239.218 52.9848 238.944 52.8423 238.712C52.7031 238.477 52.5043 238.293 52.2457 238.161C51.9905 238.028 51.6889 237.962 51.3409 237.962C51.0095 237.962 50.6996 238.023 50.4112 238.146C50.1262 238.265 49.8942 238.437 49.7152 238.663C49.5362 238.885 49.4401 239.152 49.4268 239.463H47.9403C47.9569 238.913 48.1193 238.429 48.4276 238.011C48.7391 237.594 49.1501 237.267 49.6605 237.032C50.1709 236.797 50.7377 236.679 51.3608 236.679C52.0137 236.679 52.5772 236.807 53.0511 237.062C53.5284 237.314 53.8963 237.65 54.1548 238.071C54.4167 238.492 54.5459 238.953 54.5426 239.453C54.5459 240.023 54.3868 240.507 54.0653 240.905C53.7472 241.303 53.3229 241.569 52.7926 241.705V241.785C53.4688 241.888 53.9924 242.156 54.3636 242.59C54.7382 243.024 54.9238 243.563 54.9205 244.206C54.9238 244.766 54.768 245.268 54.4531 245.712C54.1416 246.156 53.7157 246.506 53.1754 246.761C52.6352 247.013 52.017 247.139 51.321 247.139Z" fill="url(#paint15_linear_4705_6255)"/>
</g>
<g opacity="0.5">
<rect x="26" y="264" width="44" height="44" fill="white" fill-opacity="0.01"/>
<rect x="26" y="264" width="44" height="44" stroke="url(#paint16_linear_4705_6255)"/>
<path d="M40.1679 291V289.886L43.6132 286.317C43.9811 285.929 44.2844 285.589 44.523 285.298C44.7649 285.003 44.9456 284.723 45.0649 284.457C45.1842 284.192 45.2439 283.911 45.2439 283.612C45.2439 283.274 45.1643 282.982 45.0052 282.737C44.8461 282.489 44.6291 282.298 44.354 282.165C44.0789 282.03 43.769 281.962 43.4243 281.962C43.0597 281.962 42.7415 282.036 42.4697 282.185C42.1979 282.335 41.9891 282.545 41.8433 282.817C41.6975 283.089 41.6246 283.407 41.6246 283.771H40.1579C40.1579 283.152 40.3005 282.61 40.5855 282.146C40.8705 281.682 41.2616 281.322 41.7588 281.067C42.2559 280.808 42.8211 280.679 43.4541 280.679C44.0938 280.679 44.6572 280.807 45.1444 281.062C45.635 281.314 46.0178 281.658 46.2929 282.096C46.568 282.53 46.7055 283.021 46.7055 283.567C46.7055 283.945 46.6343 284.315 46.4917 284.676C46.3525 285.037 46.1089 285.44 45.7609 285.884C45.4129 286.325 44.929 286.86 44.3092 287.49L42.2858 289.608V289.683H46.8696V291H40.1679ZM52.2986 291.169C51.5131 291.166 50.8419 290.959 50.2851 290.548C49.7282 290.137 49.3023 289.538 49.0074 288.753C48.7124 287.967 48.5649 287.021 48.5649 285.914C48.5649 284.81 48.7124 283.867 49.0074 283.085C49.3057 282.303 49.7332 281.706 50.29 281.295C50.8502 280.884 51.5197 280.679 52.2986 280.679C53.0774 280.679 53.7453 280.886 54.3021 281.3C54.8589 281.711 55.2848 282.308 55.5798 283.09C55.8781 283.869 56.0273 284.81 56.0273 285.914C56.0273 287.024 55.8798 287.972 55.5848 288.758C55.2898 289.54 54.8639 290.138 54.3071 290.553C53.7503 290.964 53.0808 291.169 52.2986 291.169ZM52.2986 289.842C52.988 289.842 53.5265 289.505 53.9143 288.832C54.3054 288.16 54.501 287.187 54.501 285.914C54.501 285.069 54.4115 284.355 54.2325 283.771C54.0568 283.185 53.8033 282.741 53.4719 282.439C53.1437 282.134 52.7526 281.982 52.2986 281.982C51.6125 281.982 51.0739 282.32 50.6828 282.996C50.2917 283.672 50.0945 284.645 50.0912 285.914C50.0912 286.763 50.179 287.48 50.3547 288.067C50.5336 288.65 50.7872 289.093 51.1153 289.394C51.4434 289.692 51.8379 289.842 52.2986 289.842Z" fill="url(#paint17_linear_4705_6255)"/>
</g>
<g opacity="0.5">
<rect x="26" y="308" width="44" height="44" fill="white" fill-opacity="0.01"/>
<rect x="26" y="308" width="44" height="44" stroke="url(#paint18_linear_4705_6255)"/>
<path d="M41.1327 335V333.886L44.578 330.317C44.9459 329.929 45.2492 329.589 45.4878 329.298C45.7298 329.003 45.9104 328.723 46.0297 328.457C46.1491 328.192 46.2087 327.911 46.2087 327.612C46.2087 327.274 46.1292 326.982 45.9701 326.737C45.811 326.489 45.5939 326.298 45.3188 326.165C45.0437 326.03 44.7338 325.962 44.3891 325.962C44.0245 325.962 43.7064 326.036 43.4346 326.185C43.1628 326.335 42.954 326.545 42.8081 326.817C42.6623 327.089 42.5894 327.407 42.5894 327.771H41.1228C41.1228 327.152 41.2653 326.61 41.5503 326.146C41.8354 325.682 42.2265 325.322 42.7236 325.067C43.2208 324.808 43.7859 324.679 44.4189 324.679C45.0586 324.679 45.6221 324.807 46.1093 325.062C46.5998 325.314 46.9826 325.658 47.2577 326.096C47.5328 326.53 47.6704 327.021 47.6704 327.567C47.6704 327.945 47.5991 328.315 47.4566 328.676C47.3174 329.037 47.0738 329.44 46.7258 329.884C46.3778 330.325 45.8939 330.86 45.2741 331.49L43.2506 333.608V333.683H47.8344V335H41.1327ZM50.0617 335L54.5063 326.21V326.136H49.3657V324.818H56.0972V326.18L51.6675 335H50.0617Z" fill="url(#paint19_linear_4705_6255)"/>
</g>
<g opacity="0.5">
<rect x="70" y="132" width="44" height="44" fill="white" fill-opacity="0.01"/>
<rect x="70" y="132" width="44" height="44" stroke="url(#paint20_linear_4705_6255)"/>
<path d="M88.7038 159.139C88.0211 159.139 87.4112 159.022 86.8743 158.786C86.3407 158.551 85.9181 158.224 85.6065 157.807C85.2983 157.386 85.1326 156.899 85.1094 156.345H86.6705C86.6903 156.647 86.7914 156.909 86.9737 157.131C87.1593 157.349 87.4013 157.518 87.6996 157.638C87.9979 157.757 88.3293 157.817 88.6939 157.817C89.0949 157.817 89.4496 157.747 89.7578 157.608C90.0694 157.469 90.313 157.275 90.4886 157.026C90.6643 156.774 90.7521 156.484 90.7521 156.156C90.7521 155.815 90.6643 155.515 90.4886 155.256C90.3163 154.995 90.0627 154.789 89.728 154.64C89.3965 154.491 88.9955 154.416 88.5249 154.416H87.6648V153.163H88.5249C88.9027 153.163 89.2341 153.095 89.5192 152.96C89.8075 152.824 90.0329 152.635 90.1953 152.393C90.3577 152.147 90.4389 151.861 90.4389 151.533C90.4389 151.218 90.3677 150.944 90.2251 150.712C90.0859 150.477 89.8871 150.293 89.6286 150.161C89.3733 150.028 89.0717 149.962 88.7237 149.962C88.3923 149.962 88.0824 150.023 87.794 150.146C87.509 150.265 87.277 150.437 87.098 150.663C86.919 150.885 86.8229 151.152 86.8097 151.463H85.3232C85.3397 150.913 85.5021 150.429 85.8104 150.011C86.1219 149.594 86.5329 149.267 87.0433 149.032C87.5537 148.797 88.1205 148.679 88.7436 148.679C89.3965 148.679 89.96 148.807 90.4339 149.062C90.9112 149.314 91.2791 149.65 91.5376 150.071C91.7995 150.492 91.9287 150.953 91.9254 151.453C91.9287 152.023 91.7696 152.507 91.4482 152.905C91.13 153.303 90.7057 153.569 90.1754 153.705V153.785C90.8516 153.888 91.3752 154.156 91.7464 154.59C92.121 155.024 92.3066 155.563 92.3033 156.206C92.3066 156.766 92.1508 157.268 91.8359 157.712C91.5244 158.156 91.0985 158.506 90.5582 158.761C90.018 159.013 89.3999 159.139 88.7038 159.139ZM98.0455 148.818V159H96.5043V150.359H96.4446L94.0085 151.95V150.479L96.549 148.818H98.0455Z" fill="url(#paint21_linear_4705_6255)"/>
</g>
<g opacity="0.5">
<rect x="70" y="176" width="44" height="44" fill="white" fill-opacity="0.01"/>
<rect x="70" y="176" width="44" height="44" stroke="url(#paint22_linear_4705_6255)"/>
<path d="M89.7687 203L94.2133 194.21V194.136H89.0727V192.818H95.8042V194.18L91.3746 203H89.7687Z" fill="url(#paint23_linear_4705_6255)"/>
</g>
<g opacity="0.5">
<rect x="70" y="220" width="44" height="44" fill="white" fill-opacity="0.01"/>
<rect x="70" y="220" width="44" height="44" stroke="url(#paint24_linear_4705_6255)"/>
<path d="M88.9537 236.818V247H87.4125V238.359H87.3528L84.9167 239.95V238.479L87.4572 236.818H88.9537ZM91.4941 245.011V243.768L95.894 236.818H96.8734V238.648H96.252L93.1049 243.629V243.709H99.1355V245.011H91.4941ZM96.3216 247V244.634L96.3315 244.067V236.818H97.7882V247H96.3216Z" fill="url(#paint25_linear_4705_6255)"/>
</g>
<g opacity="0.5">
<rect x="70" y="264" width="44" height="44" fill="white" fill-opacity="0.01"/>
<rect x="70" y="264" width="44" height="44" stroke="url(#paint26_linear_4705_6255)"/>
<path d="M85.3778 291V289.886L88.8232 286.317C89.1911 285.929 89.4943 285.589 89.733 285.298C89.9749 285.003 90.1555 284.723 90.2749 284.457C90.3942 284.192 90.4538 283.911 90.4538 283.612C90.4538 283.274 90.3743 282.982 90.2152 282.737C90.0561 282.489 89.839 282.298 89.5639 282.165C89.2888 282.03 88.9789 281.962 88.6342 281.962C88.2696 281.962 87.9515 282.036 87.6797 282.185C87.4079 282.335 87.1991 282.545 87.0533 282.817C86.9074 283.089 86.8345 283.407 86.8345 283.771H85.3679C85.3679 283.152 85.5104 282.61 85.7955 282.146C86.0805 281.682 86.4716 281.322 86.9688 281.067C87.4659 280.808 88.031 280.679 88.6641 280.679C89.3037 280.679 89.8672 280.807 90.3544 281.062C90.8449 281.314 91.2277 281.658 91.5028 282.096C91.7779 282.53 91.9155 283.021 91.9155 283.567C91.9155 283.945 91.8442 284.315 91.7017 284.676C91.5625 285.037 91.3189 285.44 90.9709 285.884C90.6229 286.325 90.139 286.86 89.5192 287.49L87.4957 289.608V289.683H92.0795V291H85.3778ZM97.8267 280.818V291H96.2855V282.359H96.2259L93.7898 283.95V282.479L96.3303 280.818H97.8267Z" fill="url(#paint27_linear_4705_6255)"/>
</g>
<g opacity="0.5">
<rect x="70" y="308" width="44" height="44" fill="white" fill-opacity="0.01"/>
<rect x="70" y="308" width="44" height="44" stroke="url(#paint28_linear_4705_6255)"/>
<path d="M84.2636 335V333.886L87.7089 330.317C88.0768 329.929 88.3801 329.589 88.6187 329.298C88.8606 329.003 89.0413 328.723 89.1606 328.457C89.2799 328.192 89.3396 327.911 89.3396 327.612C89.3396 327.274 89.26 326.982 89.1009 326.737C88.9419 326.489 88.7248 326.298 88.4497 326.165C88.1746 326.03 87.8647 325.962 87.52 325.962C87.1554 325.962 86.8372 326.036 86.5654 326.185C86.2936 326.335 86.0848 326.545 85.939 326.817C85.7932 327.089 85.7203 327.407 85.7203 327.771H84.2536C84.2536 327.152 84.3962 326.61 84.6812 326.146C84.9662 325.682 85.3573 325.322 85.8545 325.067C86.3517 324.808 86.9168 324.679 87.5498 324.679C88.1895 324.679 88.7529 324.807 89.2401 325.062C89.7307 325.314 90.1135 325.658 90.3886 326.096C90.6637 326.53 90.8012 327.021 90.8012 327.567C90.8012 327.945 90.73 328.315 90.5874 328.676C90.4482 329.037 90.2046 329.44 89.8566 329.884C89.5086 330.325 89.0247 330.86 88.4049 331.49L86.3815 333.608V333.683H90.9653V335H84.2636ZM96.2899 335.139C95.5773 335.139 94.9475 335.017 94.4007 334.771C93.8571 334.526 93.4312 334.188 93.123 333.757C92.8147 333.326 92.6623 332.836 92.6656 332.286C92.6623 331.855 92.7501 331.459 92.9291 331.097C93.1114 330.733 93.3583 330.429 93.6698 330.188C93.9814 329.942 94.3294 329.786 94.7139 329.72V329.661C94.2068 329.538 93.8008 329.266 93.4958 328.845C93.1909 328.424 93.0401 327.94 93.0434 327.393C93.0401 326.873 93.1776 326.409 93.4561 326.001C93.7378 325.59 94.1239 325.267 94.6144 325.032C95.105 324.797 95.6634 324.679 96.2899 324.679C96.9097 324.679 97.4632 324.798 97.9504 325.037C98.4409 325.272 98.827 325.595 99.1088 326.006C99.3905 326.414 99.533 326.876 99.5363 327.393C99.533 327.94 99.3772 328.424 99.069 328.845C98.7607 329.266 98.3597 329.538 97.8659 329.661V329.72C98.247 329.786 98.5901 329.942 98.895 330.188C99.2032 330.429 99.4485 330.733 99.6308 331.097C99.8164 331.459 99.9108 331.855 99.9142 332.286C99.9108 332.836 99.7551 333.326 99.4468 333.757C99.1386 334.188 98.711 334.526 98.1642 334.771C97.6206 335.017 96.9958 335.139 96.2899 335.139ZM96.2899 333.881C96.7108 333.881 97.0754 333.812 97.3836 333.673C97.6919 333.53 97.9305 333.333 98.0995 333.081C98.2686 332.826 98.3547 332.527 98.358 332.186C98.3547 331.831 98.2619 331.518 98.0796 331.246C97.9007 330.975 97.657 330.761 97.3488 330.605C97.0406 330.449 96.6876 330.371 96.2899 330.371C95.8888 330.371 95.5325 330.449 95.221 330.605C94.9094 330.761 94.6642 330.975 94.4852 331.246C94.3062 331.518 94.2184 331.831 94.2217 332.186C94.2184 332.527 94.2996 332.826 94.4653 333.081C94.6343 333.333 94.8746 333.53 95.1862 333.673C95.4977 333.812 95.8656 333.881 96.2899 333.881ZM96.2899 329.143C96.6279 329.143 96.9279 329.076 97.1897 328.94C97.4516 328.804 97.657 328.615 97.8062 328.373C97.9587 328.131 98.0365 327.848 98.0399 327.523C98.0365 327.205 97.9603 326.926 97.8112 326.688C97.6653 326.449 97.4615 326.265 97.1997 326.136C96.9378 326.003 96.6346 325.937 96.2899 325.937C95.9385 325.937 95.6303 326.003 95.3651 326.136C95.1033 326.265 94.8995 326.449 94.7536 326.688C94.6078 326.926 94.5365 327.205 94.5399 327.523C94.5365 327.848 94.6095 328.131 94.7586 328.373C94.9078 328.615 95.1133 328.804 95.3751 328.94C95.6402 329.076 95.9452 329.143 96.2899 329.143Z" fill="url(#paint29_linear_4705_6255)"/>
</g>
<g opacity="0.5">
<rect x="114" y="132" width="44" height="44" fill="white" fill-opacity="0.01"/>
<rect x="114" y="132" width="44" height="44" stroke="url(#paint30_linear_4705_6255)"/>
<path d="M138.034 148.818V159H136.493V150.359H136.433L133.997 151.95V150.479L136.537 148.818H138.034Z" fill="url(#paint31_linear_4705_6255)"/>
</g>
<g opacity="0.5">
<rect x="114" y="176" width="44" height="44" fill="white" fill-opacity="0.01"/>
<rect x="114" y="176" width="44" height="44" stroke="url(#paint32_linear_4705_6255)"/>
<path d="M136.497 203.139C135.784 203.139 135.155 203.017 134.608 202.771C134.064 202.526 133.638 202.188 133.33 201.757C133.022 201.326 132.869 200.836 132.873 200.286C132.869 199.855 132.957 199.459 133.136 199.097C133.318 198.733 133.565 198.429 133.877 198.188C134.188 197.942 134.536 197.786 134.921 197.72V197.661C134.414 197.538 134.008 197.266 133.703 196.845C133.398 196.424 133.247 195.94 133.25 195.393C133.247 194.873 133.385 194.409 133.663 194.001C133.945 193.59 134.331 193.267 134.821 193.032C135.312 192.797 135.87 192.679 136.497 192.679C137.117 192.679 137.67 192.798 138.157 193.037C138.648 193.272 139.034 193.595 139.316 194.006C139.598 194.414 139.74 194.876 139.743 195.393C139.74 195.94 139.584 196.424 139.276 196.845C138.968 197.266 138.567 197.538 138.073 197.661V197.72C138.454 197.786 138.797 197.942 139.102 198.188C139.41 198.429 139.656 198.733 139.838 199.097C140.023 199.459 140.118 199.855 140.121 200.286C140.118 200.836 139.962 201.326 139.654 201.757C139.346 202.188 138.918 202.526 138.371 202.771C137.828 203.017 137.203 203.139 136.497 203.139ZM136.497 201.881C136.918 201.881 137.282 201.812 137.591 201.673C137.899 201.53 138.138 201.333 138.307 201.081C138.476 200.826 138.562 200.527 138.565 200.186C138.562 199.831 138.469 199.518 138.287 199.246C138.108 198.975 137.864 198.761 137.556 198.605C137.248 198.449 136.895 198.371 136.497 198.371C136.096 198.371 135.74 198.449 135.428 198.605C135.116 198.761 134.871 198.975 134.692 199.246C134.513 199.518 134.425 199.831 134.429 200.186C134.425 200.527 134.507 200.826 134.672 201.081C134.841 201.333 135.082 201.53 135.393 201.673C135.705 201.812 136.073 201.881 136.497 201.881ZM136.497 197.143C136.835 197.143 137.135 197.076 137.397 196.94C137.659 196.804 137.864 196.615 138.013 196.373C138.166 196.131 138.244 195.848 138.247 195.523C138.244 195.205 138.167 194.926 138.018 194.688C137.872 194.449 137.669 194.265 137.407 194.136C137.145 194.003 136.842 193.937 136.497 193.937C136.146 193.937 135.837 194.003 135.572 194.136C135.31 194.265 135.107 194.449 134.961 194.688C134.815 194.926 134.744 195.205 134.747 195.523C134.744 195.848 134.816 196.131 134.966 196.373C135.115 196.615 135.32 196.804 135.582 196.94C135.847 197.076 136.152 197.143 136.497 197.143Z" fill="url(#paint33_linear_4705_6255)"/>
</g>
<g opacity="0.5">
<rect x="114" y="220" width="44" height="44" fill="white" fill-opacity="0.01"/>
<rect x="114" y="220" width="44" height="44" stroke="url(#paint34_linear_4705_6255)"/>
<path d="M133.193 236.818V247H131.652V238.359H131.592L129.156 239.95V238.479L131.696 236.818H133.193ZM139.308 247.139C138.685 247.139 138.125 247.02 137.628 246.781C137.134 246.539 136.739 246.208 136.444 245.787C136.149 245.366 135.992 244.885 135.972 244.345H137.464C137.5 244.783 137.694 245.142 138.045 245.424C138.397 245.706 138.817 245.847 139.308 245.847C139.699 245.847 140.045 245.757 140.347 245.578C140.652 245.396 140.891 245.146 141.063 244.827C141.239 244.509 141.326 244.146 141.326 243.739C141.326 243.324 141.237 242.955 141.058 242.63C140.879 242.305 140.632 242.05 140.317 241.864C140.006 241.679 139.648 241.584 139.243 241.581C138.935 241.581 138.625 241.634 138.314 241.74C138.002 241.846 137.75 241.985 137.558 242.158L136.151 241.949L136.723 236.818H142.321V238.136H138L137.677 240.984H137.737C137.936 240.792 138.199 240.631 138.527 240.502C138.859 240.373 139.214 240.308 139.591 240.308C140.211 240.308 140.763 240.456 141.247 240.751C141.734 241.046 142.117 241.448 142.395 241.959C142.677 242.466 142.816 243.049 142.813 243.709C142.816 244.368 142.667 244.957 142.366 245.474C142.067 245.991 141.653 246.398 141.123 246.697C140.596 246.992 139.991 247.139 139.308 247.139Z" fill="url(#paint35_linear_4705_6255)"/>
</g>
<g opacity="0.5">
<rect x="114" y="264" width="44" height="44" fill="white" fill-opacity="0.01"/>
<rect x="114" y="264" width="44" height="44" stroke="url(#paint36_linear_4705_6255)"/>
<path d="M128.393 291V289.886L131.839 286.317C132.207 285.929 132.51 285.589 132.749 285.298C132.991 285.003 133.171 284.723 133.29 284.457C133.41 284.192 133.469 283.911 133.469 283.612C133.469 283.274 133.39 282.982 133.231 282.737C133.072 282.489 132.855 282.298 132.58 282.165C132.304 282.03 131.995 281.962 131.65 281.962C131.285 281.962 130.967 282.036 130.695 282.185C130.424 282.335 130.215 282.545 130.069 282.817C129.923 283.089 129.85 283.407 129.85 283.771H128.384C128.384 283.152 128.526 282.61 128.811 282.146C129.096 281.682 129.487 281.322 129.984 281.067C130.482 280.808 131.047 280.679 131.68 280.679C132.319 280.679 132.883 280.807 133.37 281.062C133.861 281.314 134.243 281.658 134.518 282.096C134.794 282.53 134.931 283.021 134.931 283.567C134.931 283.945 134.86 284.315 134.717 284.676C134.578 285.037 134.335 285.44 133.987 285.884C133.638 286.325 133.155 286.86 132.535 287.49L130.511 289.608V289.683H135.095V291H128.393ZM136.979 291V289.886L140.425 286.317C140.793 285.929 141.096 285.589 141.335 285.298C141.576 285.003 141.757 284.723 141.876 284.457C141.996 284.192 142.055 283.911 142.055 283.612C142.055 283.274 141.976 282.982 141.817 282.737C141.658 282.489 141.441 282.298 141.165 282.165C140.89 282.03 140.58 281.962 140.236 281.962C139.871 281.962 139.553 282.036 139.281 282.185C139.009 282.335 138.801 282.545 138.655 282.817C138.509 283.089 138.436 283.407 138.436 283.771H136.969C136.969 283.152 137.112 282.61 137.397 282.146C137.682 281.682 138.073 281.322 138.57 281.067C139.067 280.808 139.633 280.679 140.266 280.679C140.905 280.679 141.469 280.807 141.956 281.062C142.446 281.314 142.829 281.658 143.104 282.096C143.379 282.53 143.517 283.021 143.517 283.567C143.517 283.945 143.446 284.315 143.303 284.676C143.164 285.037 142.92 285.44 142.572 285.884C142.224 286.325 141.741 286.86 141.121 287.49L139.097 289.608V289.683H143.681V291H136.979Z" fill="url(#paint37_linear_4705_6255)"/>
</g>
<g opacity="0.5">
<rect x="114" y="308" width="44" height="44" fill="white" fill-opacity="0.01"/>
<rect x="114" y="308" width="44" height="44" stroke="url(#paint38_linear_4705_6255)"/>
<path d="M128.236 335V333.886L131.682 330.317C132.049 329.929 132.353 329.589 132.591 329.298C132.833 329.003 133.014 328.723 133.133 328.457C133.253 328.192 133.312 327.911 133.312 327.612C133.312 327.274 133.233 326.982 133.074 326.737C132.915 326.489 132.697 326.298 132.422 326.165C132.147 326.03 131.837 325.962 131.493 325.962C131.128 325.962 130.81 326.036 130.538 326.185C130.266 326.335 130.057 326.545 129.912 326.817C129.766 327.089 129.693 327.407 129.693 327.771H128.226C128.226 327.152 128.369 326.61 128.654 326.146C128.939 325.682 129.33 325.322 129.827 325.067C130.324 324.808 130.889 324.679 131.522 324.679C132.162 324.679 132.726 324.807 133.213 325.062C133.703 325.314 134.086 325.658 134.361 326.096C134.636 326.53 134.774 327.021 134.774 327.567C134.774 327.945 134.703 328.315 134.56 328.676C134.421 329.037 134.177 329.44 133.829 329.884C133.481 330.325 132.997 330.86 132.378 331.49L130.354 333.608V333.683H134.938V335H128.236ZM140.208 324.679C140.662 324.682 141.109 324.765 141.55 324.928C141.991 325.09 142.389 325.355 142.743 325.723C143.101 326.091 143.386 326.588 143.598 327.214C143.814 327.838 143.923 328.613 143.927 329.541C143.927 330.433 143.837 331.227 143.658 331.923C143.479 332.615 143.222 333.2 142.888 333.678C142.556 334.155 142.153 334.518 141.679 334.766C141.205 335.015 140.672 335.139 140.079 335.139C139.472 335.139 138.933 335.02 138.463 334.781C137.992 334.543 137.609 334.213 137.314 333.792C137.019 333.368 136.835 332.88 136.763 332.33H138.279C138.378 332.768 138.58 333.122 138.885 333.394C139.194 333.663 139.591 333.797 140.079 333.797C140.824 333.797 141.406 333.472 141.824 332.822C142.241 332.17 142.452 331.258 142.455 330.088H142.375C142.203 330.373 141.988 330.618 141.729 330.824C141.474 331.029 141.187 331.188 140.869 331.301C140.551 331.414 140.211 331.47 139.85 331.47C139.263 331.47 138.73 331.326 138.249 331.038C137.768 330.749 137.386 330.353 137.101 329.849C136.816 329.346 136.673 328.771 136.673 328.124C136.673 327.481 136.819 326.898 137.111 326.374C137.406 325.851 137.816 325.436 138.343 325.131C138.874 324.823 139.495 324.672 140.208 324.679ZM140.213 325.972C139.825 325.972 139.475 326.068 139.164 326.26C138.856 326.449 138.612 326.706 138.433 327.031C138.254 327.352 138.165 327.71 138.165 328.104C138.165 328.499 138.251 328.857 138.423 329.178C138.599 329.496 138.837 329.75 139.139 329.939C139.444 330.125 139.792 330.217 140.183 330.217C140.475 330.217 140.746 330.161 140.998 330.048C141.25 329.936 141.471 329.78 141.66 329.581C141.848 329.379 141.996 329.15 142.102 328.895C142.208 328.64 142.261 328.371 142.261 328.089C142.261 327.715 142.172 327.367 141.993 327.045C141.817 326.724 141.575 326.465 141.267 326.27C140.959 326.071 140.607 325.972 140.213 325.972Z" fill="url(#paint39_linear_4705_6255)"/>
</g>
<g opacity="0.5">
<rect x="158" y="132" width="44" height="44" fill="white" fill-opacity="0.01"/>
<rect x="158" y="132" width="44" height="44" stroke="url(#paint40_linear_4705_6255)"/>
<path d="M177.186 159V157.886L180.632 154.317C181 153.929 181.303 153.589 181.542 153.298C181.783 153.003 181.964 152.723 182.083 152.457C182.203 152.192 182.262 151.911 182.262 151.612C182.262 151.274 182.183 150.982 182.024 150.737C181.865 150.489 181.648 150.298 181.373 150.165C181.097 150.03 180.788 149.962 180.443 149.962C180.078 149.962 179.76 150.036 179.488 150.185C179.217 150.335 179.008 150.545 178.862 150.817C178.716 151.089 178.643 151.407 178.643 151.771H177.176C177.176 151.152 177.319 150.61 177.604 150.146C177.889 149.682 178.28 149.322 178.777 149.067C179.275 148.808 179.84 148.679 180.473 148.679C181.112 148.679 181.676 148.807 182.163 149.062C182.654 149.314 183.036 149.658 183.311 150.096C183.587 150.53 183.724 151.021 183.724 151.567C183.724 151.945 183.653 152.315 183.51 152.676C183.371 153.037 183.127 153.44 182.779 153.884C182.431 154.325 181.948 154.86 181.328 155.49L179.304 157.608V157.683H183.888V159H177.186Z" fill="url(#paint41_linear_4705_6255)"/>
</g>
<g opacity="0.5">
<rect x="158" y="176" width="44" height="44" fill="white" fill-opacity="0.01"/>
<rect x="158" y="176" width="44" height="44" stroke="url(#paint42_linear_4705_6255)"/>
<path d="M180.415 192.679C180.869 192.682 181.316 192.765 181.757 192.928C182.198 193.09 182.596 193.355 182.95 193.723C183.308 194.091 183.593 194.588 183.805 195.214C184.021 195.838 184.13 196.613 184.134 197.541C184.134 198.433 184.044 199.227 183.865 199.923C183.686 200.615 183.429 201.2 183.095 201.678C182.763 202.155 182.36 202.518 181.886 202.766C181.412 203.015 180.879 203.139 180.286 203.139C179.679 203.139 179.14 203.02 178.67 202.781C178.199 202.543 177.816 202.213 177.521 201.792C177.226 201.368 177.042 200.88 176.97 200.33H178.486C178.585 200.768 178.787 201.122 179.092 201.394C179.401 201.663 179.798 201.797 180.286 201.797C181.031 201.797 181.613 201.472 182.031 200.822C182.448 200.17 182.659 199.258 182.662 198.088H182.582C182.41 198.373 182.195 198.618 181.936 198.824C181.681 199.029 181.394 199.188 181.076 199.301C180.758 199.414 180.418 199.47 180.057 199.47C179.47 199.47 178.937 199.326 178.456 199.038C177.975 198.749 177.593 198.353 177.308 197.849C177.023 197.346 176.88 196.771 176.88 196.124C176.88 195.481 177.026 194.898 177.318 194.374C177.613 193.851 178.024 193.436 178.551 193.131C179.081 192.823 179.702 192.672 180.415 192.679ZM180.42 193.972C180.032 193.972 179.682 194.068 179.371 194.26C179.063 194.449 178.819 194.706 178.64 195.031C178.461 195.352 178.372 195.71 178.372 196.104C178.372 196.499 178.458 196.857 178.63 197.178C178.806 197.496 179.044 197.75 179.346 197.939C179.651 198.125 179.999 198.217 180.39 198.217C180.682 198.217 180.953 198.161 181.205 198.048C181.457 197.936 181.678 197.78 181.867 197.581C182.055 197.379 182.203 197.15 182.309 196.895C182.415 196.64 182.468 196.371 182.468 196.089C182.468 195.715 182.379 195.367 182.2 195.045C182.024 194.724 181.782 194.465 181.474 194.27C181.166 194.071 180.814 193.972 180.42 193.972Z" fill="url(#paint43_linear_4705_6255)"/>
</g>
<rect x="156" y="218" width="48" height="48" fill="url(#paint44_linear_4705_6255)"/>
<rect x="156" y="218" width="48" height="48" stroke="url(#paint45_linear_4705_6255)" stroke-width="4"/>
<path d="M175.216 233.545V251H171.525V237.048H171.423L167.426 239.554V236.281L171.747 233.545H175.216ZM186.063 251.239C185.165 251.233 184.299 251.082 183.463 250.787C182.634 250.491 181.89 250.011 181.23 249.347C180.571 248.682 180.049 247.801 179.662 246.705C179.282 245.608 179.091 244.261 179.091 242.665C179.097 241.199 179.265 239.889 179.594 238.736C179.929 237.577 180.407 236.594 181.026 235.787C181.651 234.98 182.398 234.366 183.267 233.946C184.137 233.52 185.111 233.307 186.191 233.307C187.355 233.307 188.384 233.534 189.276 233.989C190.168 234.437 190.884 235.048 191.424 235.821C191.969 236.594 192.299 237.46 192.412 238.42H188.773C188.631 237.812 188.333 237.335 187.878 236.989C187.424 236.642 186.861 236.469 186.191 236.469C185.054 236.469 184.191 236.963 183.6 237.952C183.015 238.94 182.716 240.284 182.705 241.983H182.824C183.086 241.466 183.438 241.026 183.881 240.662C184.33 240.293 184.838 240.011 185.407 239.818C185.98 239.619 186.586 239.52 187.222 239.52C188.256 239.52 189.176 239.764 189.983 240.253C190.79 240.736 191.426 241.401 191.892 242.247C192.358 243.094 192.591 244.062 192.591 245.153C192.591 246.335 192.316 247.386 191.765 248.307C191.219 249.227 190.455 249.949 189.472 250.472C188.495 250.989 187.358 251.244 186.063 251.239ZM186.046 248.341C186.614 248.341 187.123 248.205 187.571 247.932C188.02 247.659 188.373 247.29 188.628 246.824C188.884 246.358 189.012 245.835 189.012 245.256C189.012 244.676 188.884 244.156 188.628 243.696C188.378 243.236 188.032 242.869 187.588 242.597C187.145 242.324 186.64 242.188 186.071 242.188C185.645 242.188 185.25 242.267 184.887 242.426C184.529 242.585 184.213 242.807 183.941 243.091C183.674 243.375 183.463 243.705 183.31 244.08C183.157 244.449 183.08 244.844 183.08 245.264C183.08 245.827 183.208 246.341 183.463 246.807C183.725 247.273 184.077 247.645 184.52 247.923C184.969 248.202 185.478 248.341 186.046 248.341Z" fill="url(#paint46_linear_4705_6255)"/>
<g opacity="0.5">
<rect x="158" y="264" width="44" height="44" fill="white" fill-opacity="0.01"/>
<rect x="158" y="264" width="44" height="44" stroke="url(#paint47_linear_4705_6255)"/>
<path d="M172.175 291V289.886L175.62 286.317C175.988 285.929 176.291 285.589 176.53 285.298C176.772 285.003 176.952 284.723 177.072 284.457C177.191 284.192 177.251 283.911 177.251 283.612C177.251 283.274 177.171 282.982 177.012 282.737C176.853 282.489 176.636 282.298 176.361 282.165C176.086 282.03 175.776 281.962 175.431 281.962C175.067 281.962 174.748 282.036 174.477 282.185C174.205 282.335 173.996 282.545 173.85 282.817C173.704 283.089 173.631 283.407 173.631 283.771H172.165C172.165 283.152 172.307 282.61 172.592 282.146C172.877 281.682 173.268 281.322 173.766 281.067C174.263 280.808 174.828 280.679 175.461 280.679C176.101 280.679 176.664 280.807 177.151 281.062C177.642 281.314 178.025 281.658 178.3 282.096C178.575 282.53 178.712 283.021 178.712 283.567C178.712 283.945 178.641 284.315 178.499 284.676C178.359 285.037 178.116 285.44 177.768 285.884C177.42 286.325 176.936 286.86 176.316 287.49L174.293 289.608V289.683H178.876V291H172.175ZM184.305 291.139C183.623 291.139 183.013 291.022 182.476 290.786C181.942 290.551 181.52 290.224 181.208 289.807C180.9 289.386 180.734 288.899 180.711 288.345H182.272C182.292 288.647 182.393 288.909 182.575 289.131C182.761 289.349 183.003 289.518 183.301 289.638C183.599 289.757 183.931 289.817 184.295 289.817C184.696 289.817 185.051 289.747 185.359 289.608C185.671 289.469 185.915 289.275 186.09 289.026C186.266 288.774 186.354 288.484 186.354 288.156C186.354 287.815 186.266 287.515 186.09 287.256C185.918 286.995 185.664 286.789 185.33 286.64C184.998 286.491 184.597 286.416 184.126 286.416H183.266V285.163H184.126C184.504 285.163 184.836 285.095 185.121 284.96C185.409 284.824 185.634 284.635 185.797 284.393C185.959 284.147 186.04 283.861 186.04 283.533C186.04 283.218 185.969 282.944 185.827 282.712C185.688 282.477 185.489 282.293 185.23 282.161C184.975 282.028 184.673 281.962 184.325 281.962C183.994 281.962 183.684 282.023 183.396 282.146C183.111 282.265 182.879 282.437 182.7 282.663C182.521 282.885 182.424 283.152 182.411 283.463H180.925C180.941 282.913 181.104 282.429 181.412 282.011C181.723 281.594 182.134 281.267 182.645 281.032C183.155 280.797 183.722 280.679 184.345 280.679C184.998 280.679 185.562 280.807 186.036 281.062C186.513 281.314 186.881 281.65 187.139 282.071C187.401 282.492 187.53 282.953 187.527 283.453C187.53 284.023 187.371 284.507 187.05 284.905C186.732 285.303 186.307 285.569 185.777 285.705V285.785C186.453 285.888 186.977 286.156 187.348 286.59C187.723 287.024 187.908 287.563 187.905 288.206C187.908 288.766 187.752 289.268 187.438 289.712C187.126 290.156 186.7 290.506 186.16 290.761C185.62 291.013 185.001 291.139 184.305 291.139Z" fill="url(#paint48_linear_4705_6255)"/>
</g>
<g opacity="0.5">
<rect x="158" y="308" width="44" height="44" fill="white" fill-opacity="0.01"/>
<rect x="158" y="308" width="44" height="44" stroke="url(#paint49_linear_4705_6255)"/>
<path d="M175.994 335.139C175.311 335.139 174.701 335.022 174.164 334.786C173.631 334.551 173.208 334.224 172.897 333.807C172.588 333.386 172.423 332.899 172.399 332.345H173.96C173.98 332.647 174.081 332.909 174.264 333.131C174.449 333.349 174.691 333.518 174.99 333.638C175.288 333.757 175.619 333.817 175.984 333.817C176.385 333.817 176.74 333.747 177.048 333.608C177.359 333.469 177.603 333.275 177.779 333.026C177.954 332.774 178.042 332.484 178.042 332.156C178.042 331.815 177.954 331.515 177.779 331.256C177.606 330.995 177.353 330.789 177.018 330.64C176.687 330.491 176.286 330.416 175.815 330.416H174.955V329.163H175.815C176.193 329.163 176.524 329.095 176.809 328.96C177.098 328.824 177.323 328.635 177.485 328.393C177.648 328.147 177.729 327.861 177.729 327.533C177.729 327.218 177.658 326.944 177.515 326.712C177.376 326.477 177.177 326.293 176.919 326.161C176.663 326.028 176.362 325.962 176.014 325.962C175.682 325.962 175.372 326.023 175.084 326.146C174.799 326.265 174.567 326.437 174.388 326.663C174.209 326.885 174.113 327.152 174.1 327.463H172.613C172.63 326.913 172.792 326.429 173.1 326.011C173.412 325.594 173.823 325.267 174.333 325.032C174.844 324.797 175.411 324.679 176.034 324.679C176.687 324.679 177.25 324.807 177.724 325.062C178.201 325.314 178.569 325.65 178.828 326.071C179.09 326.492 179.219 326.953 179.215 327.453C179.219 328.023 179.06 328.507 178.738 328.905C178.42 329.303 177.996 329.569 177.465 329.705V329.785C178.142 329.888 178.665 330.156 179.036 330.59C179.411 331.024 179.597 331.563 179.593 332.206C179.597 332.766 179.441 333.268 179.126 333.712C178.814 334.156 178.389 334.506 177.848 334.761C177.308 335.013 176.69 335.139 175.994 335.139ZM185.017 335.169C184.232 335.166 183.561 334.959 183.004 334.548C182.447 334.137 182.021 333.538 181.726 332.753C181.431 331.967 181.284 331.021 181.284 329.914C181.284 328.81 181.431 327.867 181.726 327.085C182.024 326.303 182.452 325.706 183.009 325.295C183.569 324.884 184.238 324.679 185.017 324.679C185.796 324.679 186.464 324.886 187.021 325.3C187.578 325.711 188.004 326.308 188.299 327.09C188.597 327.869 188.746 328.81 188.746 329.914C188.746 331.024 188.599 331.972 188.304 332.758C188.009 333.54 187.583 334.138 187.026 334.553C186.469 334.964 185.8 335.169 185.017 335.169ZM185.017 333.842C185.707 333.842 186.245 333.505 186.633 332.832C187.024 332.16 187.22 331.187 187.22 329.914C187.22 329.069 187.13 328.355 186.951 327.771C186.776 327.185 186.522 326.741 186.191 326.439C185.862 326.134 185.471 325.982 185.017 325.982C184.331 325.982 183.793 326.32 183.402 326.996C183.01 327.672 182.813 328.645 182.81 329.914C182.81 330.763 182.898 331.48 183.073 332.067C183.252 332.65 183.506 333.093 183.834 333.394C184.162 333.692 184.557 333.842 185.017 333.842Z" fill="url(#paint50_linear_4705_6255)"/>
</g>
<g opacity="0.5">
<rect x="202" y="132" width="44" height="44" fill="white" fill-opacity="0.01"/>
<rect x="202" y="132" width="44" height="44" stroke="url(#paint51_linear_4705_6255)"/>
<path d="M224.012 159.139C223.33 159.139 222.72 159.022 222.183 158.786C221.649 158.551 221.227 158.224 220.915 157.807C220.607 157.386 220.441 156.899 220.418 156.345H221.979C221.999 156.647 222.1 156.909 222.282 157.131C222.468 157.349 222.71 157.518 223.008 157.638C223.306 157.757 223.638 157.817 224.002 157.817C224.404 157.817 224.758 157.747 225.066 157.608C225.378 157.469 225.622 157.275 225.797 157.026C225.973 156.774 226.061 156.484 226.061 156.156C226.061 155.815 225.973 155.515 225.797 155.256C225.625 154.995 225.371 154.789 225.037 154.64C224.705 154.491 224.304 154.416 223.833 154.416H222.973V153.163H223.833C224.211 153.163 224.543 153.095 224.828 152.96C225.116 152.824 225.342 152.635 225.504 152.393C225.666 152.147 225.748 151.861 225.748 151.533C225.748 151.218 225.676 150.944 225.534 150.712C225.395 150.477 225.196 150.293 224.937 150.161C224.682 150.028 224.38 149.962 224.032 149.962C223.701 149.962 223.391 150.023 223.103 150.146C222.818 150.265 222.586 150.437 222.407 150.663C222.228 150.885 222.132 151.152 222.118 151.463H220.632C220.648 150.913 220.811 150.429 221.119 150.011C221.431 149.594 221.842 149.267 222.352 149.032C222.862 148.797 223.429 148.679 224.052 148.679C224.705 148.679 225.269 148.807 225.743 149.062C226.22 149.314 226.588 149.65 226.846 150.071C227.108 150.492 227.237 150.953 227.234 151.453C227.237 152.023 227.078 152.507 226.757 152.905C226.439 153.303 226.014 153.569 225.484 153.705V153.785C226.16 153.888 226.684 154.156 227.055 154.59C227.43 155.024 227.615 155.563 227.612 156.206C227.615 156.766 227.459 157.268 227.145 157.712C226.833 158.156 226.407 158.506 225.867 158.761C225.327 159.013 224.708 159.139 224.012 159.139Z" fill="url(#paint52_linear_4705_6255)"/>
</g>
<g opacity="0.5">
<rect x="202" y="176" width="44" height="44" fill="white" fill-opacity="0.01"/>
<rect x="202" y="176" width="44" height="44" stroke="url(#paint53_linear_4705_6255)"/>
<path d="M221.015 192.818V203H219.474V194.359H219.414L216.978 195.95V194.479L219.519 192.818H221.015ZM227.314 203.169C226.529 203.166 225.858 202.959 225.301 202.548C224.744 202.137 224.318 201.538 224.023 200.753C223.728 199.967 223.581 199.021 223.581 197.914C223.581 196.81 223.728 195.867 224.023 195.085C224.321 194.303 224.749 193.706 225.306 193.295C225.866 192.884 226.535 192.679 227.314 192.679C228.093 192.679 228.761 192.886 229.318 193.3C229.875 193.711 230.3 194.308 230.595 195.09C230.894 195.869 231.043 196.81 231.043 197.914C231.043 199.024 230.895 199.972 230.6 200.758C230.305 201.54 229.88 202.138 229.323 202.553C228.766 202.964 228.096 203.169 227.314 203.169ZM227.314 201.842C228.004 201.842 228.542 201.505 228.93 200.832C229.321 200.16 229.517 199.187 229.517 197.914C229.517 197.069 229.427 196.355 229.248 195.771C229.072 195.185 228.819 194.741 228.487 194.439C228.159 194.134 227.768 193.982 227.314 193.982C226.628 193.982 226.09 194.32 225.698 194.996C225.307 195.672 225.11 196.645 225.107 197.914C225.107 198.763 225.195 199.48 225.37 200.067C225.549 200.65 225.803 201.093 226.131 201.394C226.459 201.692 226.853 201.842 227.314 201.842Z" fill="url(#paint54_linear_4705_6255)"/>
</g>
<g opacity="0.5">
<rect x="202" y="220" width="44" height="44" fill="white" fill-opacity="0.01"/>
<rect x="202" y="220" width="44" height="44" stroke="url(#paint55_linear_4705_6255)"/>
<path d="M221.98 236.818V247H220.439V238.359H220.379L217.943 239.95V238.479L220.484 236.818H221.98ZM225.077 247L229.522 238.21V238.136H224.381V236.818H231.113V238.18L226.683 247H225.077Z" fill="url(#paint56_linear_4705_6255)"/>
</g>
<g opacity="0.5">
<rect x="202" y="264" width="44" height="44" fill="white" fill-opacity="0.01"/>
<rect x="202" y="264" width="44" height="44" stroke="url(#paint57_linear_4705_6255)"/>
<path d="M216.216 291V289.886L219.661 286.317C220.029 285.929 220.332 285.589 220.571 285.298C220.813 285.003 220.993 284.723 221.113 284.457C221.232 284.192 221.292 283.911 221.292 283.612C221.292 283.274 221.212 282.982 221.053 282.737C220.894 282.489 220.677 282.298 220.402 282.165C220.127 282.03 219.817 281.962 219.472 281.962C219.108 281.962 218.789 282.036 218.518 282.185C218.246 282.335 218.037 282.545 217.891 282.817C217.745 283.089 217.672 283.407 217.672 283.771H216.206C216.206 283.152 216.348 282.61 216.633 282.146C216.918 281.682 217.309 281.322 217.807 281.067C218.304 280.808 218.869 280.679 219.502 280.679C220.142 280.679 220.705 280.807 221.192 281.062C221.683 281.314 222.066 281.658 222.341 282.096C222.616 282.53 222.753 283.021 222.753 283.567C222.753 283.945 222.682 284.315 222.54 284.676C222.4 285.037 222.157 285.44 221.809 285.884C221.461 286.325 220.977 286.86 220.357 287.49L218.334 289.608V289.683H222.917V291H216.216ZM224.369 289.011V287.768L228.769 280.818H229.748V282.648H229.127L225.98 287.629V287.709H232.01V289.011H224.369ZM229.197 291V288.634L229.206 288.067V280.818H230.663V291H229.197Z" fill="url(#paint58_linear_4705_6255)"/>
</g>
<g opacity="0.5">
<rect x="202" y="308" width="44" height="44" fill="white" fill-opacity="0.01"/>
<rect x="202" y="308" width="44" height="44" stroke="url(#paint59_linear_4705_6255)"/>
<path d="M220.704 335.139C220.021 335.139 219.411 335.022 218.874 334.786C218.341 334.551 217.918 334.224 217.607 333.807C217.298 333.386 217.133 332.899 217.109 332.345H218.67C218.69 332.647 218.791 332.909 218.974 333.131C219.159 333.349 219.401 333.518 219.7 333.638C219.998 333.757 220.329 333.817 220.694 333.817C221.095 333.817 221.45 333.747 221.758 333.608C222.069 333.469 222.313 333.275 222.489 333.026C222.664 332.774 222.752 332.484 222.752 332.156C222.752 331.815 222.664 331.515 222.489 331.256C222.316 330.995 222.063 330.789 221.728 330.64C221.397 330.491 220.996 330.416 220.525 330.416H219.665V329.163H220.525C220.903 329.163 221.234 329.095 221.519 328.96C221.808 328.824 222.033 328.635 222.195 328.393C222.358 328.147 222.439 327.861 222.439 327.533C222.439 327.218 222.368 326.944 222.225 326.712C222.086 326.477 221.887 326.293 221.629 326.161C221.373 326.028 221.072 325.962 220.724 325.962C220.392 325.962 220.082 326.023 219.794 326.146C219.509 326.265 219.277 326.437 219.098 326.663C218.919 326.885 218.823 327.152 218.81 327.463H217.323C217.34 326.913 217.502 326.429 217.81 326.011C218.122 325.594 218.533 325.267 219.043 325.032C219.554 324.797 220.121 324.679 220.744 324.679C221.397 324.679 221.96 324.807 222.434 325.062C222.911 325.314 223.279 325.65 223.538 326.071C223.799 326.492 223.929 326.953 223.925 327.453C223.929 328.023 223.77 328.507 223.448 328.905C223.13 329.303 222.706 329.569 222.175 329.705V329.785C222.852 329.888 223.375 330.156 223.746 330.59C224.121 331.024 224.307 331.563 224.303 332.206C224.307 332.766 224.151 333.268 223.836 333.712C223.524 334.156 223.098 334.506 222.558 334.761C222.018 335.013 221.4 335.139 220.704 335.139ZM230.045 324.818V335H228.504V326.359H228.445L226.009 327.95V326.479L228.549 324.818H230.045Z" fill="url(#paint60_linear_4705_6255)"/>
</g>
<g opacity="0.5">
<rect x="246" y="132" width="44" height="44" fill="white" fill-opacity="0.01"/>
<rect x="246" y="132" width="44" height="44" stroke="url(#paint61_linear_4705_6255)"/>
<path d="M264.186 157.011V155.768L268.585 148.818H269.565V150.648H268.943L265.796 155.629V155.709H271.827V157.011H264.186ZM269.013 159V156.634L269.023 156.067V148.818H270.48V159H269.013Z" fill="url(#paint62_linear_4705_6255)"/>
</g>
<g opacity="0.5">
<rect x="246" y="176" width="44" height="44" fill="white" fill-opacity="0.01"/>
<rect x="246" y="176" width="44" height="44" stroke="url(#paint63_linear_4705_6255)"/>
<path d="M266.225 192.818V203H264.684V194.359H264.624L262.188 195.95V194.479L264.729 192.818H266.225ZM272.842 192.818V203H271.301V194.359H271.241L268.805 195.95V194.479L271.346 192.818H272.842Z" fill="url(#paint64_linear_4705_6255)"/>
</g>
<g opacity="0.5">
<rect x="246" y="220" width="44" height="44" fill="white" fill-opacity="0.01"/>
<rect x="246" y="220" width="44" height="44" stroke="url(#paint65_linear_4705_6255)"/>
<path d="M265.111 236.818V247H263.57V238.359H263.51L261.074 239.95V238.479L263.614 236.818H265.111ZM271.305 247.139C270.593 247.139 269.963 247.017 269.416 246.771C268.873 246.526 268.447 246.188 268.139 245.757C267.83 245.326 267.678 244.836 267.681 244.286C267.678 243.855 267.766 243.459 267.945 243.097C268.127 242.733 268.374 242.429 268.685 242.188C268.997 241.942 269.345 241.786 269.729 241.72V241.661C269.222 241.538 268.816 241.266 268.511 240.845C268.207 240.424 268.056 239.94 268.059 239.393C268.056 238.873 268.193 238.409 268.472 238.001C268.753 237.59 269.14 237.267 269.63 237.032C270.121 236.797 270.679 236.679 271.305 236.679C271.925 236.679 272.479 236.798 272.966 237.037C273.457 237.272 273.843 237.595 274.124 238.006C274.406 238.414 274.549 238.876 274.552 239.393C274.549 239.94 274.393 240.424 274.085 240.845C273.776 241.266 273.375 241.538 272.881 241.661V241.72C273.263 241.786 273.606 241.942 273.911 242.188C274.219 242.429 274.464 242.733 274.646 243.097C274.832 243.459 274.926 243.855 274.93 244.286C274.926 244.836 274.771 245.326 274.462 245.757C274.154 246.188 273.727 246.526 273.18 246.771C272.636 247.017 272.011 247.139 271.305 247.139ZM271.305 245.881C271.726 245.881 272.091 245.812 272.399 245.673C272.707 245.53 272.946 245.333 273.115 245.081C273.284 244.826 273.37 244.527 273.374 244.186C273.37 243.831 273.278 243.518 273.095 243.246C272.916 242.975 272.673 242.761 272.364 242.605C272.056 242.449 271.703 242.371 271.305 242.371C270.904 242.371 270.548 242.449 270.237 242.605C269.925 242.761 269.68 242.975 269.501 243.246C269.322 243.518 269.234 243.831 269.237 244.186C269.234 244.527 269.315 244.826 269.481 245.081C269.65 245.333 269.89 245.53 270.202 245.673C270.513 245.812 270.881 245.881 271.305 245.881ZM271.305 241.143C271.644 241.143 271.944 241.076 272.205 240.94C272.467 240.804 272.673 240.615 272.822 240.373C272.974 240.131 273.052 239.848 273.055 239.523C273.052 239.205 272.976 238.926 272.827 238.688C272.681 238.449 272.477 238.265 272.215 238.136C271.953 238.003 271.65 237.937 271.305 237.937C270.954 237.937 270.646 238.003 270.381 238.136C270.119 238.265 269.915 238.449 269.769 238.688C269.623 238.926 269.552 239.205 269.555 239.523C269.552 239.848 269.625 240.131 269.774 240.373C269.923 240.615 270.129 240.804 270.391 240.94C270.656 241.076 270.961 241.143 271.305 241.143Z" fill="url(#paint66_linear_4705_6255)"/>
</g>
<g opacity="0.5">
<rect x="246" y="264" width="44" height="44" fill="white" fill-opacity="0.01"/>
<rect x="246" y="264" width="44" height="44" stroke="url(#paint67_linear_4705_6255)"/>
<path d="M260.346 291V289.886L263.791 286.317C264.159 285.929 264.462 285.589 264.701 285.298C264.943 285.003 265.123 284.723 265.243 284.457C265.362 284.192 265.422 283.911 265.422 283.612C265.422 283.274 265.342 282.982 265.183 282.737C265.024 282.489 264.807 282.298 264.532 282.165C264.257 282.03 263.947 281.962 263.602 281.962C263.237 281.962 262.919 282.036 262.647 282.185C262.376 282.335 262.167 282.545 262.021 282.817C261.875 283.089 261.802 283.407 261.802 283.771H260.336C260.336 283.152 260.478 282.61 260.763 282.146C261.048 281.682 261.439 281.322 261.937 281.067C262.434 280.808 262.999 280.679 263.632 280.679C264.272 280.679 264.835 280.807 265.322 281.062C265.813 281.314 266.196 281.658 266.471 282.096C266.746 282.53 266.883 283.021 266.883 283.567C266.883 283.945 266.812 284.315 266.669 284.676C266.53 285.037 266.287 285.44 265.939 285.884C265.591 286.325 265.107 286.86 264.487 287.49L262.464 289.608V289.683H267.047V291H260.346ZM272.292 291.139C271.669 291.139 271.109 291.02 270.612 290.781C270.118 290.539 269.724 290.208 269.429 289.787C269.134 289.366 268.976 288.885 268.956 288.345H270.448C270.484 288.783 270.678 289.142 271.03 289.424C271.381 289.706 271.802 289.847 272.292 289.847C272.683 289.847 273.03 289.757 273.331 289.578C273.636 289.396 273.875 289.146 274.047 288.827C274.223 288.509 274.311 288.146 274.311 287.739C274.311 287.324 274.221 286.955 274.042 286.63C273.863 286.305 273.616 286.05 273.302 285.864C272.99 285.679 272.632 285.584 272.228 285.581C271.919 285.581 271.61 285.634 271.298 285.74C270.986 285.846 270.735 285.985 270.542 286.158L269.135 285.949L269.707 280.818H275.305V282.136H270.985L270.662 284.984H270.721C270.92 284.792 271.184 284.631 271.512 284.502C271.843 284.373 272.198 284.308 272.576 284.308C273.196 284.308 273.747 284.456 274.231 284.751C274.718 285.046 275.101 285.448 275.38 285.959C275.661 286.466 275.801 287.049 275.797 287.709C275.801 288.368 275.651 288.957 275.35 289.474C275.052 289.991 274.637 290.398 274.107 290.697C273.58 290.992 272.975 291.139 272.292 291.139Z" fill="url(#paint68_linear_4705_6255)"/>
</g>
<rect x="244" y="306" width="48" height="48" fill="url(#paint69_linear_4705_6255)"/>
<rect x="244" y="306" width="48" height="48" stroke="url(#paint70_linear_4705_6255)" stroke-width="4"/>
<path d="M271.137 321.545V339H267.447V325.048H267.345L263.348 327.554V324.281L267.669 321.545H271.137Z" fill="url(#paint71_linear_4705_6255)"/>
<g opacity="0.5">
<rect x="290" y="132" width="44" height="44" fill="white" fill-opacity="0.01"/>
<rect x="290" y="132" width="44" height="44" stroke="url(#paint72_linear_4705_6255)"/>
<path d="M312.499 159.139C311.876 159.139 311.316 159.02 310.819 158.781C310.325 158.539 309.931 158.208 309.636 157.787C309.341 157.366 309.183 156.885 309.163 156.345H310.655C310.691 156.783 310.885 157.142 311.237 157.424C311.588 157.706 312.009 157.847 312.499 157.847C312.89 157.847 313.237 157.757 313.538 157.578C313.843 157.396 314.082 157.146 314.254 156.827C314.43 156.509 314.518 156.146 314.518 155.739C314.518 155.324 314.428 154.955 314.249 154.63C314.07 154.305 313.823 154.05 313.509 153.864C313.197 153.679 312.839 153.584 312.435 153.581C312.127 153.581 311.817 153.634 311.505 153.74C311.194 153.846 310.942 153.985 310.749 154.158L309.342 153.949L309.914 148.818H315.512V150.136H311.192L310.869 152.984H310.928C311.127 152.792 311.391 152.631 311.719 152.502C312.05 152.373 312.405 152.308 312.783 152.308C313.403 152.308 313.954 152.456 314.438 152.751C314.926 153.046 315.308 153.448 315.587 153.959C315.868 154.466 316.008 155.049 316.004 155.709C316.008 156.368 315.859 156.957 315.557 157.474C315.259 157.991 314.844 158.398 314.314 158.697C313.787 158.992 313.182 159.139 312.499 159.139Z" fill="url(#paint73_linear_4705_6255)"/>
</g>
<g opacity="0.5">
<rect x="290" y="176" width="44" height="44" fill="white" fill-opacity="0.01"/>
<rect x="290" y="176" width="44" height="44" stroke="url(#paint74_linear_4705_6255)"/>
<path d="M309.241 192.818V203H307.7V194.359H307.64L305.204 195.95V194.479L307.744 192.818H309.241ZM311.995 203V201.886L315.44 198.317C315.808 197.929 316.112 197.589 316.35 197.298C316.592 197.003 316.773 196.723 316.892 196.457C317.011 196.192 317.071 195.911 317.071 195.612C317.071 195.274 316.991 194.982 316.832 194.737C316.673 194.489 316.456 194.298 316.181 194.165C315.906 194.03 315.596 193.962 315.251 193.962C314.887 193.962 314.569 194.036 314.297 194.185C314.025 194.335 313.816 194.545 313.67 194.817C313.525 195.089 313.452 195.407 313.452 195.771H311.985C311.985 195.152 312.128 194.61 312.413 194.146C312.698 193.682 313.089 193.322 313.586 193.067C314.083 192.808 314.648 192.679 315.281 192.679C315.921 192.679 316.484 192.807 316.972 193.062C317.462 193.314 317.845 193.658 318.12 194.096C318.395 194.53 318.533 195.021 318.533 195.567C318.533 195.945 318.461 196.315 318.319 196.676C318.18 197.037 317.936 197.44 317.588 197.884C317.24 198.325 316.756 198.86 316.136 199.49L314.113 201.608V201.683H318.697V203H311.995Z" fill="url(#paint75_linear_4705_6255)"/>
</g>
<g opacity="0.5">
<rect x="290" y="220" width="44" height="44" fill="white" fill-opacity="0.01"/>
<rect x="290" y="220" width="44" height="44" stroke="url(#paint76_linear_4705_6255)"/>
<path d="M309.084 236.818V247H307.542V238.359H307.483L305.047 239.95V238.479L307.587 236.818H309.084ZM315.223 236.679C315.678 236.682 316.125 236.765 316.566 236.928C317.007 237.09 317.404 237.355 317.759 237.723C318.117 238.091 318.402 238.588 318.614 239.214C318.83 239.838 318.939 240.613 318.942 241.541C318.942 242.433 318.853 243.227 318.674 243.923C318.495 244.615 318.238 245.2 317.903 245.678C317.572 246.155 317.169 246.518 316.695 246.766C316.221 247.015 315.687 247.139 315.094 247.139C314.488 247.139 313.949 247.02 313.478 246.781C313.008 246.543 312.625 246.213 312.33 245.792C312.035 245.368 311.851 244.88 311.778 244.33H313.294C313.394 244.768 313.596 245.122 313.901 245.394C314.209 245.663 314.607 245.797 315.094 245.797C315.84 245.797 316.422 245.472 316.839 244.822C317.257 244.17 317.467 243.258 317.471 242.088H317.391C317.219 242.373 317.003 242.618 316.745 242.824C316.49 243.029 316.203 243.188 315.885 243.301C315.566 243.414 315.227 243.47 314.866 243.47C314.279 243.47 313.745 243.326 313.265 243.038C312.784 242.749 312.401 242.353 312.116 241.849C311.831 241.346 311.689 240.771 311.689 240.124C311.689 239.481 311.834 238.898 312.126 238.374C312.421 237.851 312.832 237.436 313.359 237.131C313.889 236.823 314.511 236.672 315.223 236.679ZM315.228 237.972C314.841 237.972 314.491 238.068 314.179 238.26C313.871 238.449 313.628 238.706 313.449 239.031C313.27 239.352 313.18 239.71 313.18 240.104C313.18 240.499 313.266 240.857 313.439 241.178C313.614 241.496 313.853 241.75 314.155 241.939C314.459 242.125 314.807 242.217 315.199 242.217C315.49 242.217 315.762 242.161 316.014 242.048C316.266 241.936 316.486 241.78 316.675 241.581C316.864 241.379 317.012 241.15 317.118 240.895C317.224 240.64 317.277 240.371 317.277 240.089C317.277 239.715 317.187 239.367 317.008 239.045C316.833 238.724 316.591 238.465 316.282 238.27C315.974 238.071 315.623 237.972 315.228 237.972Z" fill="url(#paint77_linear_4705_6255)"/>
</g>
<g opacity="0.5">
<rect x="290" y="264" width="44" height="44" fill="white" fill-opacity="0.01"/>
<rect x="290" y="264" width="44" height="44" stroke="url(#paint78_linear_4705_6255)"/>
<path d="M304.236 291V289.886L307.682 286.317C308.049 285.929 308.353 285.589 308.591 285.298C308.833 285.003 309.014 284.723 309.133 284.457C309.253 284.192 309.312 283.911 309.312 283.612C309.312 283.274 309.233 282.982 309.074 282.737C308.915 282.489 308.697 282.298 308.422 282.165C308.147 282.03 307.837 281.962 307.493 281.962C307.128 281.962 306.81 282.036 306.538 282.185C306.266 282.335 306.057 282.545 305.912 282.817C305.766 283.089 305.693 283.407 305.693 283.771H304.226C304.226 283.152 304.369 282.61 304.654 282.146C304.939 281.682 305.33 281.322 305.827 281.067C306.324 280.808 306.889 280.679 307.522 280.679C308.162 280.679 308.726 280.807 309.213 281.062C309.703 281.314 310.086 281.658 310.361 282.096C310.636 282.53 310.774 283.021 310.774 283.567C310.774 283.945 310.703 284.315 310.56 284.676C310.421 285.037 310.177 285.44 309.829 285.884C309.481 286.325 308.997 286.86 308.378 287.49L306.354 289.608V289.683H310.938V291H304.236ZM316.377 291.139C315.923 291.133 315.475 291.05 315.035 290.891C314.597 290.732 314.199 290.466 313.841 290.095C313.483 289.724 313.197 289.225 312.981 288.599C312.769 287.972 312.663 287.19 312.663 286.252C312.663 285.364 312.751 284.575 312.927 283.886C313.106 283.196 313.362 282.615 313.697 282.141C314.032 281.663 314.436 281.3 314.91 281.052C315.384 280.803 315.916 280.679 316.506 280.679C317.113 280.679 317.651 280.798 318.122 281.037C318.593 281.276 318.974 281.605 319.265 282.026C319.56 282.447 319.748 282.926 319.827 283.463H318.311C318.208 283.039 318.004 282.692 317.699 282.424C317.394 282.156 316.997 282.021 316.506 282.021C315.76 282.021 315.179 282.346 314.761 282.996C314.347 283.645 314.138 284.549 314.135 285.705H314.209C314.385 285.417 314.6 285.172 314.856 284.969C315.114 284.764 315.402 284.607 315.721 284.497C316.042 284.384 316.38 284.328 316.735 284.328C317.325 284.328 317.858 284.472 318.336 284.761C318.816 285.046 319.199 285.44 319.484 285.944C319.769 286.448 319.912 287.024 319.912 287.674C319.912 288.324 319.764 288.912 319.469 289.439C319.178 289.966 318.767 290.384 318.236 290.692C317.706 290.997 317.086 291.146 316.377 291.139ZM316.372 289.847C316.763 289.847 317.113 289.75 317.421 289.558C317.729 289.366 317.973 289.107 318.152 288.783C318.331 288.458 318.42 288.095 318.42 287.694C318.42 287.303 318.332 286.946 318.157 286.625C317.984 286.304 317.746 286.048 317.441 285.859C317.139 285.67 316.794 285.576 316.407 285.576C316.112 285.576 315.838 285.632 315.586 285.745C315.338 285.858 315.119 286.013 314.93 286.212C314.741 286.411 314.592 286.64 314.483 286.898C314.377 287.154 314.324 287.424 314.324 287.709C314.324 288.09 314.411 288.443 314.587 288.768C314.766 289.093 315.01 289.354 315.318 289.553C315.629 289.749 315.981 289.847 316.372 289.847Z" fill="url(#paint79_linear_4705_6255)"/>
</g>
<g opacity="0.5">
<rect x="290" y="308" width="44" height="44" fill="white" fill-opacity="0.01"/>
<rect x="290" y="308" width="44" height="44" stroke="url(#paint80_linear_4705_6255)"/>
<path d="M309.186 335V333.886L312.632 330.317C313 329.929 313.303 329.589 313.542 329.298C313.783 329.003 313.964 328.723 314.083 328.457C314.203 328.192 314.262 327.911 314.262 327.612C314.262 327.274 314.183 326.982 314.024 326.737C313.865 326.489 313.648 326.298 313.373 326.165C313.097 326.03 312.788 325.962 312.443 325.962C312.078 325.962 311.76 326.036 311.488 326.185C311.217 326.335 311.008 326.545 310.862 326.817C310.716 327.089 310.643 327.407 310.643 327.771H309.176C309.176 327.152 309.319 326.61 309.604 326.146C309.889 325.682 310.28 325.322 310.777 325.067C311.275 324.808 311.84 324.679 312.473 324.679C313.112 324.679 313.676 324.807 314.163 325.062C314.654 325.314 315.036 325.658 315.311 326.096C315.587 326.53 315.724 327.021 315.724 327.567C315.724 327.945 315.653 328.315 315.51 328.676C315.371 329.037 315.127 329.44 314.779 329.884C314.431 330.325 313.948 330.86 313.328 331.49L311.304 333.608V333.683H315.888V335H309.186Z" fill="url(#paint81_linear_4705_6255)"/>
</g>
<rect x="160" y="80" width="40" height="40" rx="20" fill="url(#paint82_linear_4705_6255)"/>
<rect x="159.125" y="79.125" width="41.75" height="41.75" rx="20.875" stroke="white" stroke-opacity="0.65" stroke-width="1.75"/>
<path d="M170.667 101.333L176 106.667L189.333 93.3334" stroke="url(#paint83_linear_4705_6255)" stroke-width="4" stroke-linecap="round" stroke-linejoin="round"/>
<defs>
<linearGradient id="paint0_linear_4705_6255" x1="180" y1="8" x2="180" y2="192" gradientUnits="userSpaceOnUse">
<stop stop-color="white" stop-opacity="0.5"/>
<stop offset="1" stop-color="white" stop-opacity="0"/>
</linearGradient>
<linearGradient id="paint1_linear_4705_6255" x1="180" y1="8" x2="180" y2="192" gradientUnits="userSpaceOnUse">
<stop stop-color="white" stop-opacity="0.5"/>
<stop offset="1" stop-color="white" stop-opacity="0"/>
</linearGradient>
<linearGradient id="paint2_linear_4705_6255" x1="180" y1="40" x2="180" y2="160" gradientUnits="userSpaceOnUse">
<stop stop-color="white" stop-opacity="0.5"/>
<stop offset="1" stop-color="white" stop-opacity="0"/>
</linearGradient>
<linearGradient id="paint3_linear_4705_6255" x1="180" y1="40" x2="180" y2="160" gradientUnits="userSpaceOnUse">
<stop stop-color="white" stop-opacity="0.5"/>
<stop offset="1" stop-color="white" stop-opacity="0"/>
</linearGradient>
<linearGradient id="paint4_linear_4705_6255" x1="180" y1="68" x2="180" y2="132" gradientUnits="userSpaceOnUse">
<stop stop-color="white" stop-opacity="0.5"/>
<stop offset="1" stop-color="white" stop-opacity="0"/>
</linearGradient>
<linearGradient id="paint5_linear_4705_6255" x1="180" y1="68" x2="180" y2="132" gradientUnits="userSpaceOnUse">
<stop stop-color="white" stop-opacity="0.5"/>
<stop offset="1" stop-color="white" stop-opacity="0"/>
</linearGradient>
<linearGradient id="paint6_linear_4705_6255" x1="180" y1="100" x2="180" y2="360" gradientUnits="userSpaceOnUse">
<stop stop-color="white" stop-opacity="0.1"/>
<stop offset="1" stop-color="white" stop-opacity="0"/>
</linearGradient>
<linearGradient id="paint7_linear_4705_6255" x1="180" y1="100" x2="180" y2="360" gradientUnits="userSpaceOnUse">
<stop stop-color="white" stop-opacity="0.25"/>
<stop offset="1" stop-color="white" stop-opacity="0"/>
</linearGradient>
<linearGradient id="paint8_linear_4705_6255" x1="180" y1="100" x2="180" y2="132" gradientUnits="userSpaceOnUse">
<stop stop-color="white" stop-opacity="0.75"/>
<stop offset="1" stop-color="white" stop-opacity="0.5"/>
</linearGradient>
<linearGradient id="paint9_linear_4705_6255" x1="180" y1="100" x2="180" y2="132" gradientUnits="userSpaceOnUse">
<stop stop-color="white" stop-opacity="0.4"/>
<stop offset="1" stop-color="white" stop-opacity="0.15"/>
</linearGradient>
<linearGradient id="paint10_linear_4705_6255" x1="48" y1="132" x2="48" y2="176" gradientUnits="userSpaceOnUse">
<stop stop-color="white" stop-opacity="0.15"/>
<stop offset="1" stop-color="white" stop-opacity="0.05"/>
</linearGradient>
<linearGradient id="paint11_linear_4705_6255" x1="48.5" y1="144" x2="48.5" y2="164" gradientUnits="userSpaceOnUse">
<stop stop-color="white" stop-opacity="0.5"/>
<stop offset="1" stop-color="white" stop-opacity="0"/>
</linearGradient>
<linearGradient id="paint12_linear_4705_6255" x1="48" y1="176" x2="48" y2="220" gradientUnits="userSpaceOnUse">
<stop stop-color="white" stop-opacity="0.15"/>
<stop offset="1" stop-color="white" stop-opacity="0.05"/>
</linearGradient>
<linearGradient id="paint13_linear_4705_6255" x1="48.5" y1="188" x2="48.5" y2="208" gradientUnits="userSpaceOnUse">
<stop stop-color="white" stop-opacity="0.5"/>
<stop offset="1" stop-color="white" stop-opacity="0"/>
</linearGradient>
<linearGradient id="paint14_linear_4705_6255" x1="48" y1="220" x2="48" y2="264" gradientUnits="userSpaceOnUse">
<stop stop-color="white" stop-opacity="0.15"/>
<stop offset="1" stop-color="white" stop-opacity="0.05"/>
</linearGradient>
<linearGradient id="paint15_linear_4705_6255" x1="48" y1="232" x2="48" y2="252" gradientUnits="userSpaceOnUse">
<stop stop-color="white" stop-opacity="0.5"/>
<stop offset="1" stop-color="white" stop-opacity="0"/>
</linearGradient>
<linearGradient id="paint16_linear_4705_6255" x1="48" y1="264" x2="48" y2="308" gradientUnits="userSpaceOnUse">
<stop stop-color="white" stop-opacity="0.15"/>
<stop offset="1" stop-color="white" stop-opacity="0.05"/>
</linearGradient>
<linearGradient id="paint17_linear_4705_6255" x1="48" y1="276" x2="48" y2="296" gradientUnits="userSpaceOnUse">
<stop stop-color="white" stop-opacity="0.5"/>
<stop offset="1" stop-color="white" stop-opacity="0"/>
</linearGradient>
<linearGradient id="paint18_linear_4705_6255" x1="48" y1="308" x2="48" y2="352" gradientUnits="userSpaceOnUse">
<stop stop-color="white" stop-opacity="0.15"/>
<stop offset="1" stop-color="white" stop-opacity="0.05"/>
</linearGradient>
<linearGradient id="paint19_linear_4705_6255" x1="48.5" y1="320" x2="48.5" y2="340" gradientUnits="userSpaceOnUse">
<stop stop-color="white" stop-opacity="0.5"/>
<stop offset="1" stop-color="white" stop-opacity="0"/>
</linearGradient>
<linearGradient id="paint20_linear_4705_6255" x1="92" y1="132" x2="92" y2="176" gradientUnits="userSpaceOnUse">
<stop stop-color="white" stop-opacity="0.15"/>
<stop offset="1" stop-color="white" stop-opacity="0.05"/>
</linearGradient>
<linearGradient id="paint21_linear_4705_6255" x1="92" y1="144" x2="92" y2="164" gradientUnits="userSpaceOnUse">
<stop stop-color="white" stop-opacity="0.5"/>
<stop offset="1" stop-color="white" stop-opacity="0"/>
</linearGradient>
<linearGradient id="paint22_linear_4705_6255" x1="92" y1="176" x2="92" y2="220" gradientUnits="userSpaceOnUse">
<stop stop-color="white" stop-opacity="0.15"/>
<stop offset="1" stop-color="white" stop-opacity="0.05"/>
</linearGradient>
<linearGradient id="paint23_linear_4705_6255" x1="92.5" y1="188" x2="92.5" y2="208" gradientUnits="userSpaceOnUse">
<stop stop-color="white" stop-opacity="0.5"/>
<stop offset="1" stop-color="white" stop-opacity="0"/>
</linearGradient>
<linearGradient id="paint24_linear_4705_6255" x1="92" y1="220" x2="92" y2="264" gradientUnits="userSpaceOnUse">
<stop stop-color="white" stop-opacity="0.15"/>
<stop offset="1" stop-color="white" stop-opacity="0.05"/>
</linearGradient>
<linearGradient id="paint25_linear_4705_6255" x1="92" y1="232" x2="92" y2="252" gradientUnits="userSpaceOnUse">
<stop stop-color="white" stop-opacity="0.5"/>
<stop offset="1" stop-color="white" stop-opacity="0"/>
</linearGradient>
<linearGradient id="paint26_linear_4705_6255" x1="92" y1="264" x2="92" y2="308" gradientUnits="userSpaceOnUse">
<stop stop-color="white" stop-opacity="0.15"/>
<stop offset="1" stop-color="white" stop-opacity="0.05"/>
</linearGradient>
<linearGradient id="paint27_linear_4705_6255" x1="92" y1="276" x2="92" y2="296" gradientUnits="userSpaceOnUse">
<stop stop-color="white" stop-opacity="0.5"/>
<stop offset="1" stop-color="white" stop-opacity="0"/>
</linearGradient>
<linearGradient id="paint28_linear_4705_6255" x1="92" y1="308" x2="92" y2="352" gradientUnits="userSpaceOnUse">
<stop stop-color="white" stop-opacity="0.15"/>
<stop offset="1" stop-color="white" stop-opacity="0.05"/>
</linearGradient>
<linearGradient id="paint29_linear_4705_6255" x1="92" y1="320" x2="92" y2="340" gradientUnits="userSpaceOnUse">
<stop stop-color="white" stop-opacity="0.5"/>
<stop offset="1" stop-color="white" stop-opacity="0"/>
</linearGradient>
<linearGradient id="paint30_linear_4705_6255" x1="136" y1="132" x2="136" y2="176" gradientUnits="userSpaceOnUse">
<stop stop-color="white" stop-opacity="0.15"/>
<stop offset="1" stop-color="white" stop-opacity="0.05"/>
</linearGradient>
<linearGradient id="paint31_linear_4705_6255" x1="136.5" y1="144" x2="136.5" y2="164" gradientUnits="userSpaceOnUse">
<stop stop-color="white" stop-opacity="0.5"/>
<stop offset="1" stop-color="white" stop-opacity="0"/>
</linearGradient>
<linearGradient id="paint32_linear_4705_6255" x1="136" y1="176" x2="136" y2="220" gradientUnits="userSpaceOnUse">
<stop stop-color="white" stop-opacity="0.15"/>
<stop offset="1" stop-color="white" stop-opacity="0.05"/>
</linearGradient>
<linearGradient id="paint33_linear_4705_6255" x1="136.5" y1="188" x2="136.5" y2="208" gradientUnits="userSpaceOnUse">
<stop stop-color="white" stop-opacity="0.5"/>
<stop offset="1" stop-color="white" stop-opacity="0"/>
</linearGradient>
<linearGradient id="paint34_linear_4705_6255" x1="136" y1="220" x2="136" y2="264" gradientUnits="userSpaceOnUse">
<stop stop-color="white" stop-opacity="0.15"/>
<stop offset="1" stop-color="white" stop-opacity="0.05"/>
</linearGradient>
<linearGradient id="paint35_linear_4705_6255" x1="136" y1="232" x2="136" y2="252" gradientUnits="userSpaceOnUse">
<stop stop-color="white" stop-opacity="0.5"/>
<stop offset="1" stop-color="white" stop-opacity="0"/>
</linearGradient>
<linearGradient id="paint36_linear_4705_6255" x1="136" y1="264" x2="136" y2="308" gradientUnits="userSpaceOnUse">
<stop stop-color="white" stop-opacity="0.15"/>
<stop offset="1" stop-color="white" stop-opacity="0.05"/>
</linearGradient>
<linearGradient id="paint37_linear_4705_6255" x1="136" y1="276" x2="136" y2="296" gradientUnits="userSpaceOnUse">
<stop stop-color="white" stop-opacity="0.5"/>
<stop offset="1" stop-color="white" stop-opacity="0"/>
</linearGradient>
<linearGradient id="paint38_linear_4705_6255" x1="136" y1="308" x2="136" y2="352" gradientUnits="userSpaceOnUse">
<stop stop-color="white" stop-opacity="0.15"/>
<stop offset="1" stop-color="white" stop-opacity="0.05"/>
</linearGradient>
<linearGradient id="paint39_linear_4705_6255" x1="136" y1="320" x2="136" y2="340" gradientUnits="userSpaceOnUse">
<stop stop-color="white" stop-opacity="0.5"/>
<stop offset="1" stop-color="white" stop-opacity="0"/>
</linearGradient>
<linearGradient id="paint40_linear_4705_6255" x1="180" y1="132" x2="180" y2="176" gradientUnits="userSpaceOnUse">
<stop stop-color="white" stop-opacity="0.15"/>
<stop offset="1" stop-color="white" stop-opacity="0.05"/>
</linearGradient>
<linearGradient id="paint41_linear_4705_6255" x1="180.5" y1="144" x2="180.5" y2="164" gradientUnits="userSpaceOnUse">
<stop stop-color="white" stop-opacity="0.5"/>
<stop offset="1" stop-color="white" stop-opacity="0"/>
</linearGradient>
<linearGradient id="paint42_linear_4705_6255" x1="180" y1="176" x2="180" y2="220" gradientUnits="userSpaceOnUse">
<stop stop-color="white" stop-opacity="0.15"/>
<stop offset="1" stop-color="white" stop-opacity="0.05"/>
</linearGradient>
<linearGradient id="paint43_linear_4705_6255" x1="180.5" y1="188" x2="180.5" y2="208" gradientUnits="userSpaceOnUse">
<stop stop-color="white" stop-opacity="0.5"/>
<stop offset="1" stop-color="white" stop-opacity="0"/>
</linearGradient>
<linearGradient id="paint44_linear_4705_6255" x1="180" y1="220" x2="180" y2="264" gradientUnits="userSpaceOnUse">
<stop stop-color="#FFFD6B"/>
<stop offset="1" stop-color="#D0CE45"/>
</linearGradient>
<linearGradient id="paint45_linear_4705_6255" x1="180" y1="220" x2="180" y2="264" gradientUnits="userSpaceOnUse">
<stop stop-color="white" stop-opacity="0.35"/>
<stop offset="1" stop-color="white" stop-opacity="0.25"/>
</linearGradient>
<linearGradient id="paint46_linear_4705_6255" x1="180" y1="228" x2="180" y2="257" gradientUnits="userSpaceOnUse">
<stop stop-color="#565510" stop-opacity="0.4"/>
<stop offset="1" stop-color="#565510" stop-opacity="0.65"/>
</linearGradient>
<linearGradient id="paint47_linear_4705_6255" x1="180" y1="264" x2="180" y2="308" gradientUnits="userSpaceOnUse">
<stop stop-color="white" stop-opacity="0.15"/>
<stop offset="1" stop-color="white" stop-opacity="0.05"/>
</linearGradient>
<linearGradient id="paint48_linear_4705_6255" x1="180" y1="276" x2="180" y2="296" gradientUnits="userSpaceOnUse">
<stop stop-color="white" stop-opacity="0.5"/>
<stop offset="1" stop-color="white" stop-opacity="0"/>
</linearGradient>
<linearGradient id="paint49_linear_4705_6255" x1="180" y1="308" x2="180" y2="352" gradientUnits="userSpaceOnUse">
<stop stop-color="white" stop-opacity="0.15"/>
<stop offset="1" stop-color="white" stop-opacity="0.05"/>
</linearGradient>
<linearGradient id="paint50_linear_4705_6255" x1="180.5" y1="320" x2="180.5" y2="340" gradientUnits="userSpaceOnUse">
<stop stop-color="white" stop-opacity="0.5"/>
<stop offset="1" stop-color="white" stop-opacity="0"/>
</linearGradient>
<linearGradient id="paint51_linear_4705_6255" x1="224" y1="132" x2="224" y2="176" gradientUnits="userSpaceOnUse">
<stop stop-color="white" stop-opacity="0.15"/>
<stop offset="1" stop-color="white" stop-opacity="0.05"/>
</linearGradient>
<linearGradient id="paint52_linear_4705_6255" x1="224" y1="144" x2="224" y2="164" gradientUnits="userSpaceOnUse">
<stop stop-color="white" stop-opacity="0.5"/>
<stop offset="1" stop-color="white" stop-opacity="0"/>
</linearGradient>
<linearGradient id="paint53_linear_4705_6255" x1="224" y1="176" x2="224" y2="220" gradientUnits="userSpaceOnUse">
<stop stop-color="white" stop-opacity="0.15"/>
<stop offset="1" stop-color="white" stop-opacity="0.05"/>
</linearGradient>
<linearGradient id="paint54_linear_4705_6255" x1="224" y1="188" x2="224" y2="208" gradientUnits="userSpaceOnUse">
<stop stop-color="white" stop-opacity="0.5"/>
<stop offset="1" stop-color="white" stop-opacity="0"/>
</linearGradient>
<linearGradient id="paint55_linear_4705_6255" x1="224" y1="220" x2="224" y2="264" gradientUnits="userSpaceOnUse">
<stop stop-color="white" stop-opacity="0.15"/>
<stop offset="1" stop-color="white" stop-opacity="0.05"/>
</linearGradient>
<linearGradient id="paint56_linear_4705_6255" x1="224.5" y1="232" x2="224.5" y2="252" gradientUnits="userSpaceOnUse">
<stop stop-color="white" stop-opacity="0.5"/>
<stop offset="1" stop-color="white" stop-opacity="0"/>
</linearGradient>
<linearGradient id="paint57_linear_4705_6255" x1="224" y1="264" x2="224" y2="308" gradientUnits="userSpaceOnUse">
<stop stop-color="white" stop-opacity="0.15"/>
<stop offset="1" stop-color="white" stop-opacity="0.05"/>
</linearGradient>
<linearGradient id="paint58_linear_4705_6255" x1="224" y1="276" x2="224" y2="296" gradientUnits="userSpaceOnUse">
<stop stop-color="white" stop-opacity="0.5"/>
<stop offset="1" stop-color="white" stop-opacity="0"/>
</linearGradient>
<linearGradient id="paint59_linear_4705_6255" x1="224" y1="308" x2="224" y2="352" gradientUnits="userSpaceOnUse">
<stop stop-color="white" stop-opacity="0.15"/>
<stop offset="1" stop-color="white" stop-opacity="0.05"/>
</linearGradient>
<linearGradient id="paint60_linear_4705_6255" x1="224" y1="320" x2="224" y2="340" gradientUnits="userSpaceOnUse">
<stop stop-color="white" stop-opacity="0.5"/>
<stop offset="1" stop-color="white" stop-opacity="0"/>
</linearGradient>
<linearGradient id="paint61_linear_4705_6255" x1="268" y1="132" x2="268" y2="176" gradientUnits="userSpaceOnUse">
<stop stop-color="white" stop-opacity="0.15"/>
<stop offset="1" stop-color="white" stop-opacity="0.05"/>
</linearGradient>
<linearGradient id="paint62_linear_4705_6255" x1="268" y1="144" x2="268" y2="164" gradientUnits="userSpaceOnUse">
<stop stop-color="white" stop-opacity="0.5"/>
<stop offset="1" stop-color="white" stop-opacity="0"/>
</linearGradient>
<linearGradient id="paint63_linear_4705_6255" x1="268" y1="176" x2="268" y2="220" gradientUnits="userSpaceOnUse">
<stop stop-color="white" stop-opacity="0.15"/>
<stop offset="1" stop-color="white" stop-opacity="0.05"/>
</linearGradient>
<linearGradient id="paint64_linear_4705_6255" x1="268" y1="188" x2="268" y2="208" gradientUnits="userSpaceOnUse">
<stop stop-color="white" stop-opacity="0.5"/>
<stop offset="1" stop-color="white" stop-opacity="0"/>
</linearGradient>
<linearGradient id="paint65_linear_4705_6255" x1="268" y1="220" x2="268" y2="264" gradientUnits="userSpaceOnUse">
<stop stop-color="white" stop-opacity="0.15"/>
<stop offset="1" stop-color="white" stop-opacity="0.05"/>
</linearGradient>
<linearGradient id="paint66_linear_4705_6255" x1="268" y1="232" x2="268" y2="252" gradientUnits="userSpaceOnUse">
<stop stop-color="white" stop-opacity="0.5"/>
<stop offset="1" stop-color="white" stop-opacity="0"/>
</linearGradient>
<linearGradient id="paint67_linear_4705_6255" x1="268" y1="264" x2="268" y2="308" gradientUnits="userSpaceOnUse">
<stop stop-color="white" stop-opacity="0.15"/>
<stop offset="1" stop-color="white" stop-opacity="0.05"/>
</linearGradient>
<linearGradient id="paint68_linear_4705_6255" x1="268" y1="276" x2="268" y2="296" gradientUnits="userSpaceOnUse">
<stop stop-color="white" stop-opacity="0.5"/>
<stop offset="1" stop-color="white" stop-opacity="0"/>
</linearGradient>
<linearGradient id="paint69_linear_4705_6255" x1="268" y1="308" x2="268" y2="352" gradientUnits="userSpaceOnUse">
<stop stop-color="#FFFD6B"/>
<stop offset="1" stop-color="#D0CE45"/>
</linearGradient>
<linearGradient id="paint70_linear_4705_6255" x1="268" y1="308" x2="268" y2="352" gradientUnits="userSpaceOnUse">
<stop stop-color="white" stop-opacity="0.35"/>
<stop offset="1" stop-color="white" stop-opacity="0.25"/>
</linearGradient>
<linearGradient id="paint71_linear_4705_6255" x1="268" y1="316" x2="268" y2="345" gradientUnits="userSpaceOnUse">
<stop stop-color="#565510" stop-opacity="0.4"/>
<stop offset="1" stop-color="#565510" stop-opacity="0.65"/>
</linearGradient>
<linearGradient id="paint72_linear_4705_6255" x1="312" y1="132" x2="312" y2="176" gradientUnits="userSpaceOnUse">
<stop stop-color="white" stop-opacity="0.15"/>
<stop offset="1" stop-color="white" stop-opacity="0.05"/>
</linearGradient>
<linearGradient id="paint73_linear_4705_6255" x1="312.5" y1="144" x2="312.5" y2="164" gradientUnits="userSpaceOnUse">
<stop stop-color="white" stop-opacity="0.5"/>
<stop offset="1" stop-color="white" stop-opacity="0"/>
</linearGradient>
<linearGradient id="paint74_linear_4705_6255" x1="312" y1="176" x2="312" y2="220" gradientUnits="userSpaceOnUse">
<stop stop-color="white" stop-opacity="0.15"/>
<stop offset="1" stop-color="white" stop-opacity="0.05"/>
</linearGradient>
<linearGradient id="paint75_linear_4705_6255" x1="312" y1="188" x2="312" y2="208" gradientUnits="userSpaceOnUse">
<stop stop-color="white" stop-opacity="0.5"/>
<stop offset="1" stop-color="white" stop-opacity="0"/>
</linearGradient>
<linearGradient id="paint76_linear_4705_6255" x1="312" y1="220" x2="312" y2="264" gradientUnits="userSpaceOnUse">
<stop stop-color="white" stop-opacity="0.15"/>
<stop offset="1" stop-color="white" stop-opacity="0.05"/>
</linearGradient>
<linearGradient id="paint77_linear_4705_6255" x1="312" y1="232" x2="312" y2="252" gradientUnits="userSpaceOnUse">
<stop stop-color="white" stop-opacity="0.5"/>
<stop offset="1" stop-color="white" stop-opacity="0"/>
</linearGradient>
<linearGradient id="paint78_linear_4705_6255" x1="312" y1="264" x2="312" y2="308" gradientUnits="userSpaceOnUse">
<stop stop-color="white" stop-opacity="0.15"/>
<stop offset="1" stop-color="white" stop-opacity="0.05"/>
</linearGradient>
<linearGradient id="paint79_linear_4705_6255" x1="312" y1="276" x2="312" y2="296" gradientUnits="userSpaceOnUse">
<stop stop-color="white" stop-opacity="0.5"/>
<stop offset="1" stop-color="white" stop-opacity="0"/>
</linearGradient>
<linearGradient id="paint80_linear_4705_6255" x1="312" y1="308" x2="312" y2="352" gradientUnits="userSpaceOnUse">
<stop stop-color="white" stop-opacity="0.15"/>
<stop offset="1" stop-color="white" stop-opacity="0.05"/>
</linearGradient>
<linearGradient id="paint81_linear_4705_6255" x1="312.5" y1="320" x2="312.5" y2="340" gradientUnits="userSpaceOnUse">
<stop stop-color="white" stop-opacity="0.5"/>
<stop offset="1" stop-color="white" stop-opacity="0"/>
</linearGradient>
<linearGradient id="paint82_linear_4705_6255" x1="180" y1="80" x2="180" y2="120" gradientUnits="userSpaceOnUse">
<stop stop-color="#FFFD6B"/>
<stop offset="1" stop-color="#D0CE45"/>
</linearGradient>
<linearGradient id="paint83_linear_4705_6255" x1="180" y1="93.3334" x2="180" y2="106.667" gradientUnits="userSpaceOnUse">
<stop stop-color="#565510" stop-opacity="0.5"/>
<stop offset="1" stop-color="#565510" stop-opacity="0.75"/>
</linearGradient>
</defs>
</svg>
